<?xml version="1.0" encoding="iso-8859-1"?>
<!-- Generator: Adobe Illustrator 19.0.0, SVG Export Plug-In . SVG Version: 6.00 Build 0)  -->
<svg version="1.1" id="Capa_1" xmlns="http://www.w3.org/2000/svg" xmlns:xlink="http://www.w3.org/1999/xlink" x="0px" y="0px"
	 viewBox="0 0 511.997 511.997" style="enable-background:new 0 0 511.997 511.997;" xml:space="preserve">
<g>
	<path style="fill:#61C6AD;" d="M494.357,247.816c0-24.806-11.621-46.896-29.715-61.127c-13.475-10.598-20.495-27.546-18.461-44.568
		c2.732-22.857-4.671-46.694-22.212-64.235c-17.54-17.54-41.378-24.943-64.235-22.212c-17.022,2.035-33.97-4.986-44.568-18.461
		C300.937,19.121,278.847,7.5,254.041,7.5s-46.896,11.621-61.127,29.715c-10.598,13.475-27.546,20.495-44.568,18.461
		c-22.857-2.732-46.694,4.671-64.235,22.212c-17.54,17.541-24.944,41.378-22.212,64.235c2.034,17.022-4.986,33.97-18.461,44.568
		c-18.094,14.231-29.715,36.321-29.715,61.127s11.621,46.896,29.715,61.127c13.475,10.598,20.495,27.546,18.461,44.568
		c-2.732,22.857,4.671,46.694,22.212,64.234c17.54,17.54,41.378,24.944,64.235,22.212c17.022-2.034,33.97,4.986,44.568,18.461
		c14.231,18.094,36.321,29.715,61.127,29.715s46.896-11.621,61.127-29.715c10.598-13.475,27.546-20.495,44.568-18.461
		c22.857,2.732,46.694-4.671,64.235-22.212c17.54-17.54,24.944-41.377,22.212-64.234c-2.034-17.022,4.986-33.97,18.461-44.568
		C482.736,294.712,494.357,272.622,494.357,247.816z M376.677,274.437c4.035,16.093-2.864,32.748-17.096,41.274
		c-7.535,4.514-14.643,10.016-21.137,16.51c-6.494,6.494-11.996,13.602-16.51,21.137c-8.526,14.232-25.181,21.131-41.274,17.096
		c-8.52-2.136-17.437-3.272-26.62-3.272c-9.183,0-18.1,1.136-26.62,3.272c-16.093,4.035-32.748-2.864-41.274-17.096
		c-4.514-7.535-10.016-14.643-16.51-21.137c-6.494-6.494-13.602-11.996-21.137-16.51c-14.232-8.526-21.131-25.181-17.096-41.274
		c2.136-8.52,3.272-17.437,3.272-26.62s-1.136-18.1-3.272-26.62c-4.035-16.093,2.864-32.748,17.096-41.274
		c7.535-4.514,14.643-10.016,21.137-16.51c6.494-6.494,11.996-13.602,16.51-21.137c8.526-14.232,25.181-21.131,41.274-17.096
		c8.52,2.136,17.437,3.272,26.62,3.272c9.183,0,18.1-1.136,26.62-3.272c16.093-4.035,32.748,2.864,41.274,17.096
		c4.514,7.535,10.016,14.643,16.51,21.137c6.494,6.494,13.602,11.996,21.137,16.51c14.232,8.526,21.131,25.181,17.096,41.274
		c-2.136,8.52-3.272,17.437-3.272,26.62C373.405,257,374.541,265.917,376.677,274.437z"/>
	<path style="fill:#61C6AD;" d="M124.31,366.389c-10.16-10.16-26.107-16.977-39.988-16.977c-17.679,0-33.138,10.617-41.544,17.766
		c-3.934,3.346-3.934,9.383,0,12.729c4.278,3.639,10.39,8.17,17.686,11.748c-7.592,13.373-10.133,28.479-10.944,38.518
		c-0.254,3.148,0.924,6.026,2.952,8.055c2.028,2.028,4.907,3.206,8.055,2.952c10.039-0.811,25.145-3.352,38.518-10.944
		c3.578,7.296,8.11,13.408,11.748,17.686c3.346,3.934,9.382,3.934,12.729,0c7.149-8.406,17.766-23.865,17.766-41.544
		C141.288,392.496,134.47,376.549,124.31,366.389z"/>
</g>
<g style="opacity:0.15;">
	<path d="M124.31,366.389c-10.16-10.16-26.107-16.977-39.988-16.977c-17.679,0-33.138,10.617-41.544,17.766
		c-3.934,3.346-3.934,9.383,0,12.729c4.278,3.639,10.39,8.17,17.686,11.748c-7.592,13.373-10.133,28.479-10.944,38.518
		c-0.254,3.148,0.924,6.026,2.952,8.055c2.028,2.028,4.907,3.206,8.055,2.952c10.039-0.811,25.145-3.352,38.518-10.944
		c3.578,7.296,8.11,13.408,11.748,17.686c3.346,3.934,9.382,3.934,12.729,0c7.149-8.406,17.766-23.865,17.766-41.544
		C141.288,392.496,134.47,376.549,124.31,366.389z"/>
</g>
<g style="opacity:0.1;">
	<path d="M79.65,418.548c-1.92,0-3.839-0.732-5.303-2.197c-2.929-2.929-2.929-7.678,0-10.606l31.831-31.831
		c2.929-2.929,7.678-2.929,10.606,0c2.929,2.929,2.929,7.678,0,10.606l-31.831,31.831C83.489,417.816,81.57,418.548,79.65,418.548z"
		/>
	<path d="M115.186,424.747c-3.814,0-7.077-2.897-7.456-6.772l-3.714-38.029c-0.403-4.123,2.613-7.791,6.735-8.193
		c4.119-0.413,7.791,2.613,8.193,6.735l3.714,38.029c0.403,4.122-2.613,7.791-6.735,8.193
		C115.676,424.735,115.43,424.747,115.186,424.747z"/>
	<path d="M111.49,386.718c-0.244,0-0.49-0.012-0.738-0.036l-38.028-3.714c-4.123-0.402-7.138-4.071-6.735-8.193
		c0.402-4.122,4.061-7.142,8.193-6.735l38.028,3.714c4.123,0.402,7.138,4.071,6.735,8.193
		C118.567,383.821,115.304,386.718,111.49,386.718z"/>
</g>
<path style="fill:#61C6AD;" d="M98.27,206.519c10.16-10.16,16.977-26.107,16.977-39.988c0-17.679-10.617-33.138-17.766-41.544
	c-3.346-3.934-9.382-3.934-12.729,0c-3.639,4.278-8.17,10.39-11.748,17.686c-13.373-7.592-28.479-10.133-38.518-10.944
	c-3.148-0.254-6.026,0.924-8.055,2.952c-2.028,2.028-3.206,4.907-2.952,8.055c0.811,10.039,3.352,25.145,10.944,38.518
	c-7.295,3.578-13.407,8.11-17.686,11.748c-3.934,3.346-3.934,9.383,0,12.729c8.406,7.149,23.865,17.766,41.544,17.766
	C72.162,223.497,88.11,216.679,98.27,206.519z"/>
<g style="opacity:0.15;">
	<path d="M98.27,206.519c10.16-10.16,16.977-26.107,16.977-39.988c0-17.679-10.617-33.138-17.766-41.544
		c-3.346-3.934-9.382-3.934-12.729,0c-3.639,4.278-8.17,10.39-11.748,17.686c-13.373-7.592-28.479-10.133-38.518-10.944
		c-3.148-0.254-6.026,0.924-8.055,2.952c-2.028,2.028-3.206,4.907-2.952,8.055c0.811,10.039,3.352,25.145,10.944,38.518
		c-7.295,3.578-13.407,8.11-17.686,11.748c-3.934,3.346-3.934,9.383,0,12.729c8.406,7.149,23.865,17.766,41.544,17.766
		C72.162,223.497,88.11,216.679,98.27,206.519z"/>
</g>
<g style="opacity:0.1;">
	<path d="M85.44,201.19c-1.919,0-3.839-0.732-5.303-2.197l-31.831-31.831c-2.929-2.929-2.929-7.678,0-10.606
		c2.929-2.929,7.678-2.929,10.607,0l31.83,31.831c2.929,2.929,2.929,7.678,0,10.607C89.279,200.458,87.359,201.19,85.44,201.19z"/>
	<path d="M47.403,204.904c-3.814,0-7.077-2.896-7.456-6.771c-0.403-4.122,2.613-7.791,6.735-8.193l38.029-3.713
		c4.12-0.411,7.791,2.613,8.193,6.735c0.403,4.123-2.613,7.791-6.735,8.193l-38.029,3.713
		C47.893,204.893,47.646,204.904,47.403,204.904z"/>
	<path d="M85.449,201.191c-0.244,0-0.49-0.012-0.738-0.036c-4.123-0.402-7.138-4.071-6.735-8.193l3.714-38.029
		c0.402-4.122,4.061-7.143,8.193-6.735c4.122,0.402,7.138,4.071,6.735,8.193l-3.714,38.029
		C92.526,198.294,89.263,201.191,85.449,201.191z"/>
</g>
<path style="fill:#61C6AD;" d="M405.676,335.717c12.698-6.724,23.902-19.963,27.982-33.23c5.197-16.898-0.406-34.795-4.769-44.931
	c-2.042-4.744-7.811-6.518-12.166-3.742c-4.736,3.02-10.863,7.53-16.428,13.451c-10.551-11.188-24.242-18.057-33.599-21.783
	c-2.934-1.168-6.031-0.889-8.566,0.454c-2.535,1.342-4.507,3.748-5.189,6.831c-2.176,9.834-4.188,25.019-0.863,40.033
	c-8.025,1.276-15.199,3.81-20.358,6.03c-4.744,2.042-6.518,7.812-3.742,12.166c5.933,9.304,17.588,23.996,34.486,29.193
	C375.732,344.27,392.979,342.442,405.676,335.717z"/>
<g style="opacity:0.15;">
	<path d="M405.676,335.717c12.698-6.724,23.902-19.963,27.982-33.23c5.197-16.898-0.406-34.795-4.769-44.931
		c-2.042-4.744-7.811-6.518-12.166-3.742c-4.736,3.02-10.863,7.53-16.428,13.451c-10.551-11.188-24.242-18.057-33.599-21.783
		c-2.934-1.168-6.031-0.889-8.566,0.454c-2.535,1.342-4.507,3.748-5.189,6.831c-2.176,9.834-4.188,25.019-0.863,40.033
		c-8.025,1.276-15.199,3.81-20.358,6.03c-4.744,2.042-6.518,7.812-3.742,12.166c5.933,9.304,17.588,23.996,34.486,29.193
		C375.732,344.27,392.979,342.442,405.676,335.717z"/>
</g>
<g style="opacity:0.1;">
	<path d="M397.192,327.186c-2.689,0-5.288-1.45-6.634-3.991l-21.067-39.781c-1.939-3.661-0.543-8.2,3.118-10.138
		c3.662-1.939,8.199-0.543,10.138,3.118l21.067,39.781c1.938,3.661,0.542,8.2-3.118,10.138
		C399.577,326.905,398.375,327.186,397.192,327.186z"/>
	<path d="M397.193,327.186c-0.496,0-1-0.049-1.505-0.152l-37.441-7.629c-4.059-0.827-6.679-4.788-5.851-8.847
		c0.827-4.058,4.791-6.679,8.847-5.852l37.44,7.629c4.059,0.827,6.679,4.788,5.852,8.847
		C403.81,324.735,400.684,327.186,397.193,327.186z"/>
	<path d="M397.183,327.186c-0.964,0-1.943-0.187-2.888-0.582c-3.822-1.597-5.626-5.989-4.029-9.811l14.728-35.257
		c1.597-3.822,5.989-5.625,9.812-4.029c3.822,1.597,5.626,5.989,4.029,9.812l-14.729,35.257
		C402.904,325.452,400.117,327.186,397.183,327.186z"/>
</g>
<path style="fill:#61C6AD;" d="M255.868,430.429c18.189-4.583,36.507-17.889,45.801-33.444
	c11.838-19.812,10.291-44.245,7.908-58.452c-1.115-6.649-7.88-10.691-14.264-8.523c-6.942,2.358-16.113,6.173-25.008,11.953
	c-9.903-17.462-25.131-30.424-35.838-38.055c-3.357-2.393-7.372-3-11.003-2.085c-3.631,0.915-6.879,3.352-8.701,7.05
	c-5.813,11.793-13.08,30.423-13.527,50.493c-10.572-0.875-20.455,0.111-27.686,1.324c-6.649,1.116-10.691,7.88-8.523,14.264
	c4.633,13.64,14.848,35.888,34.661,47.726C215.243,431.974,237.68,435.012,255.868,430.429z"/>
<g style="opacity:0.15;">
	<path d="M255.868,430.429c18.189-4.583,36.507-17.889,45.801-33.444c11.838-19.812,10.291-44.245,7.908-58.452
		c-1.115-6.649-7.88-10.691-14.264-8.523c-6.942,2.358-16.113,6.173-25.008,11.953c-9.903-17.462-25.131-30.424-35.838-38.055
		c-3.357-2.393-7.372-3-11.003-2.085c-3.631,0.915-6.879,3.352-8.701,7.05c-5.813,11.793-13.08,30.423-13.527,50.493
		c-10.572-0.875-20.455,0.111-27.686,1.324c-6.649,1.116-10.691,7.88-8.523,14.264c4.633,13.64,14.848,35.888,34.661,47.726
		C215.243,431.974,237.68,435.012,255.868,430.429z"/>
</g>
<g style="opacity:0.1;">
	<path d="M250.076,414.964c-3.355,0-6.41-2.268-7.268-5.669l-14.357-56.984c-1.012-4.017,1.423-8.093,5.44-9.105
		c4.017-1.014,8.093,1.423,9.105,5.44l14.358,56.984c1.012,4.017-1.423,8.093-5.44,9.105
		C251.299,414.89,250.682,414.964,250.076,414.964z"/>
	<path d="M250.076,414.964c-1.073,0-2.163-0.231-3.198-0.72l-45.104-21.301c-3.746-1.769-5.348-6.239-3.579-9.984
		c1.77-3.746,6.24-5.347,9.984-3.579l45.104,21.301c3.746,1.769,5.348,6.239,3.579,9.984
		C255.582,413.376,252.887,414.964,250.076,414.964z"/>
	<path d="M250.075,414.963c-1.547,0-3.108-0.477-4.449-1.467c-3.332-2.46-4.04-7.156-1.579-10.488l29.625-40.13
		c2.46-3.332,7.157-4.039,10.488-1.579c3.332,2.46,4.04,7.156,1.579,10.488l-29.625,40.13
		C254.644,413.909,252.374,414.963,250.075,414.963z"/>
</g>
<path style="fill:#61C6AD;" d="M377.95,124.013c11.168,11.168,28.697,18.661,43.954,18.661c19.433,0,36.425-11.67,45.665-19.528
	c4.324-3.678,4.324-10.313,0-13.991c-4.703-4-11.421-8.98-19.44-12.914c8.345-14.7,11.138-31.304,12.029-42.338
	c0.28-3.46-1.015-6.624-3.245-8.854c-2.229-2.23-5.394-3.524-8.854-3.245c-11.034,0.891-27.639,3.684-42.338,12.029
	c-3.933-8.019-8.914-14.737-12.914-19.44c-3.678-4.324-10.313-4.324-13.991,0c-7.858,9.239-19.528,26.232-19.528,45.665
	C359.289,95.316,366.783,112.845,377.95,124.013z"/>
<g style="opacity:0.15;">
	<path d="M377.95,124.013c11.168,11.168,28.697,18.661,43.954,18.661c19.433,0,36.425-11.67,45.665-19.528
		c4.324-3.678,4.324-10.313,0-13.991c-4.703-4-11.421-8.98-19.44-12.914c8.345-14.7,11.138-31.304,12.029-42.338
		c0.28-3.46-1.015-6.624-3.245-8.854c-2.229-2.23-5.394-3.524-8.854-3.245c-11.034,0.891-27.639,3.684-42.338,12.029
		c-3.933-8.019-8.914-14.737-12.914-19.44c-3.678-4.324-10.313-4.324-13.991,0c-7.858,9.239-19.528,26.232-19.528,45.665
		C359.289,95.316,366.783,112.845,377.95,124.013z"/>
</g>
<g style="opacity:0.1;">
	<path d="M392.052,117.412c-1.919,0-3.839-0.732-5.303-2.197c-2.929-2.929-2.929-7.678,0-10.606l34.988-34.988
		c2.929-2.929,7.678-2.929,10.607,0s2.929,7.678,0,10.606l-34.988,34.988C395.891,116.679,393.971,117.412,392.052,117.412z"/>
	<path d="M392.043,117.412c-3.814,0-7.077-2.896-7.456-6.771l-4.082-41.801c-0.403-4.123,2.613-7.791,6.735-8.193
		c4.118-0.405,7.79,2.613,8.193,6.735l4.082,41.801c0.403,4.123-2.613,7.791-6.735,8.193
		C392.533,117.4,392.287,117.412,392.043,117.412z"/>
	<path d="M433.861,121.494c-0.244,0-0.49-0.012-0.738-0.036l-41.801-4.082c-4.122-0.402-7.138-4.071-6.735-8.193
		s4.062-7.149,8.193-6.735l41.801,4.082c4.123,0.402,7.138,4.071,6.735,8.193C440.938,118.597,437.675,121.494,433.861,121.494z"/>
</g>
<path style="fill:#61C6AD;" d="M195.417,440.766c14.953-14.953,36.683-19.545,50.619-20.902c7.482-0.728,13.785,5.575,13.057,13.057
	c-1.357,13.937-5.949,35.666-20.902,50.619s-36.683,19.545-50.619,20.902c-7.482,0.728-13.786-5.575-13.057-13.057
	C175.871,477.449,180.463,455.719,195.417,440.766z"/>
<path style="opacity:0.15;enable-background:new    ;" d="M195.417,440.766c14.953-14.953,36.683-19.545,50.619-20.902
	c7.482-0.728,13.785,5.575,13.057,13.057c-1.357,13.937-5.949,35.666-20.902,50.619s-36.683,19.545-50.619,20.902
	c-7.482,0.728-13.786-5.575-13.057-13.057C175.871,477.449,180.463,455.719,195.417,440.766z"/>
<path style="opacity:0.1;enable-background:new    ;" d="M206.275,480.182c-1.92,0-3.839-0.732-5.303-2.197
	c-2.929-2.929-2.929-7.678,0-10.607l21.057-21.057c2.929-2.929,7.678-2.929,10.606,0c2.929,2.929,2.929,7.678,0,10.606
	l-21.057,21.057C210.114,479.449,208.195,480.182,206.275,480.182z"/>
<path style="fill:#61C6AD;" d="M312.665,440.766c-14.953-14.953-36.683-19.545-50.619-20.902
	c-7.482-0.728-13.785,5.575-13.057,13.057c1.357,13.937,5.949,35.666,20.902,50.619s36.683,19.545,50.619,20.902
	c7.482,0.728,13.786-5.575,13.057-13.057C332.21,477.449,327.618,455.719,312.665,440.766z"/>
<path style="opacity:0.15;enable-background:new    ;" d="M312.665,440.766c-14.953-14.953-36.683-19.545-50.619-20.902
	c-7.482-0.728-13.785,5.575-13.057,13.057c1.357,13.937,5.949,35.666,20.902,50.619s36.683,19.545,50.619,20.902
	c7.482,0.728,13.786-5.575,13.057-13.057C332.21,477.449,327.618,455.719,312.665,440.766z"/>
<path style="opacity:0.1;enable-background:new    ;" d="M301.806,480.182c-1.919,0-3.839-0.732-5.303-2.197l-21.057-21.057
	c-2.929-2.929-2.929-7.678,0-10.606c2.929-2.929,7.678-2.929,10.606,0l21.057,21.057c2.929,2.929,2.929,7.678,0,10.607
	C305.645,479.449,303.726,480.182,301.806,480.182z"/>
<path style="fill:#61C6AD;" d="M179.721,52.11c-14.953-14.953-36.683-19.545-50.619-20.902c-7.482-0.728-13.785,5.575-13.057,13.057
	c1.357,13.937,5.949,35.666,20.902,50.619s36.683,19.545,50.619,20.902c7.482,0.728,13.786-5.575,13.057-13.057
	C199.266,88.793,194.674,67.063,179.721,52.11z"/>
<path style="opacity:0.15;enable-background:new    ;" d="M179.721,52.11c-14.953-14.953-36.683-19.545-50.619-20.902
	c-7.482-0.728-13.785,5.575-13.057,13.057c1.357,13.937,5.949,35.666,20.902,50.619s36.683,19.545,50.619,20.902
	c7.482,0.728,13.786-5.575,13.057-13.057C199.266,88.793,194.674,67.063,179.721,52.11z"/>
<path style="opacity:0.1;enable-background:new    ;" d="M168.862,91.526c-1.919,0-3.839-0.732-5.303-2.197l-21.057-21.057
	c-2.929-2.929-2.929-7.678,0-10.606c2.929-2.929,7.678-2.929,10.606,0l21.057,21.057c2.929,2.929,2.929,7.678,0,10.606
	C172.701,90.794,170.782,91.526,168.862,91.526z"/>
<path style="fill:#61C6AD;" d="M442.693,388.086c-14.953-14.953-36.683-19.545-50.619-20.902
	c-7.482-0.728-13.786,5.575-13.057,13.057c1.357,13.937,5.949,35.666,20.902,50.619s36.683,19.545,50.619,20.902
	c7.482,0.728,13.786-5.575,13.057-13.057C462.238,424.769,457.646,403.039,442.693,388.086z"/>
<path style="opacity:0.15;enable-background:new    ;" d="M442.693,388.086c-14.953-14.953-36.683-19.545-50.619-20.902
	c-7.482-0.728-13.786,5.575-13.057,13.057c1.357,13.937,5.949,35.666,20.902,50.619s36.683,19.545,50.619,20.902
	c7.482,0.728,13.786-5.575,13.057-13.057C462.238,424.769,457.646,403.039,442.693,388.086z"/>
<path style="opacity:0.1;enable-background:new    ;" d="M431.834,427.502c-1.92,0-3.839-0.733-5.303-2.197l-21.057-21.057
	c-2.929-2.929-2.929-7.678,0-10.606c2.929-2.929,7.678-2.929,10.607,0l21.057,21.057c2.929,2.929,2.929,7.678,0,10.607
	C435.673,426.77,433.753,427.502,431.834,427.502z"/>
<path style="fill:#61C6AD;" d="M443.802,169.575c-20.797,3.829-36.907,19.118-45.932,29.824c-4.845,5.748-3.23,14.515,3.344,18.16
	c12.246,6.79,32.745,15.337,53.542,11.508c20.797-3.829,36.907-19.118,45.932-29.824c4.845-5.748,3.23-14.515-3.344-18.16
	C485.098,174.292,464.599,165.745,443.802,169.575z"/>
<path style="opacity:0.15;enable-background:new    ;" d="M443.802,169.575c-20.797,3.829-36.907,19.118-45.932,29.824
	c-4.845,5.748-3.23,14.515,3.344,18.16c12.246,6.79,32.745,15.337,53.542,11.508c20.797-3.829,36.907-19.118,45.932-29.824
	c4.845-5.748,3.23-14.515-3.344-18.16C485.098,174.292,464.599,165.745,443.802,169.575z"/>
<path style="opacity:0.1;enable-background:new    ;" d="M434.627,209.519c-3.548,0-6.702-2.529-7.367-6.144
	c-0.75-4.073,1.944-7.984,6.018-8.734l29.287-5.393c4.072-0.746,7.984,1.944,8.734,6.018c0.75,4.073-1.944,7.984-6.018,8.734
	l-29.287,5.393C435.535,209.478,435.078,209.519,434.627,209.519z"/>
<path style="fill:#61C6AD;" d="M50.724,251.557c-19.909,7.128-33.348,24.811-40.53,36.831c-3.856,6.453-0.851,14.846,6.224,17.385
	c13.18,4.73,34.788,9.865,54.697,2.737s33.348-24.811,40.53-36.831c3.856-6.453,0.851-14.846-6.224-17.385
	C92.241,249.564,70.633,244.429,50.724,251.557z"/>
<path style="opacity:0.15;enable-background:new    ;" d="M50.724,251.557c-19.909,7.128-33.348,24.811-40.53,36.831
	c-3.856,6.453-0.851,14.846,6.224,17.385c13.18,4.73,34.788,9.865,54.697,2.737s33.348-24.811,40.53-36.831
	c3.856-6.453,0.851-14.846-6.224-17.385C92.241,249.564,70.633,244.429,50.724,251.557z"/>
<path style="opacity:0.1;enable-background:new    ;" d="M46.901,292.554c-3.079,0-5.964-1.909-7.061-4.974
	c-1.397-3.899,0.633-8.193,4.533-9.589l28.036-10.038c3.899-1.398,8.192,0.633,9.589,4.533c1.396,3.899-0.633,8.193-4.533,9.589
	l-28.036,10.038C48.594,292.412,47.74,292.554,46.901,292.554z"/>
<path style="fill:#61C6AD;" d="M264.301,95.888c-11.231,17.918-10.85,40.124-9.056,54.011c0.963,7.455,8.516,12.19,15.646,9.808
	c13.281-4.438,33.434-13.772,44.665-31.69c11.232-17.917,10.85-40.124,9.056-54.011c-0.963-7.455-8.516-12.19-15.646-9.808
	C295.686,68.636,275.533,77.97,264.301,95.888z"/>
<path style="opacity:0.15;enable-background:new    ;" d="M264.301,95.888c-11.231,17.918-10.85,40.124-9.056,54.011
	c0.963,7.455,8.516,12.19,15.646,9.808c13.281-4.438,33.434-13.772,44.665-31.69c11.232-17.917,10.85-40.124,9.056-54.011
	c-0.963-7.455-8.516-12.19-15.646-9.808C295.686,68.636,275.533,77.97,264.301,95.888z"/>
<path style="opacity:0.1;enable-background:new    ;" d="M282.013,132.069c-1.361,0-2.738-0.37-3.976-1.146
	c-3.51-2.2-4.571-6.828-2.371-10.338l15.816-25.232c2.2-3.509,6.828-4.571,10.338-2.371s4.571,6.828,2.371,10.338l-15.816,25.232
	C286.951,130.823,284.51,132.069,282.013,132.069z"/>
<circle style="fill:#E86478;" cx="288.049" cy="425.63" r="35.888"/>
<circle style="opacity:0.1;enable-background:new    ;" cx="288.049" cy="425.63" r="35.888"/>
<path style="opacity:0.1;enable-background:new    ;" d="M296.561,452.281c-19.82,0-35.888-16.068-35.888-35.888
	c0-7.119,2.081-13.747,5.656-19.327c-8.609,6.556-14.169,16.909-14.169,28.565c0,19.82,16.068,35.888,35.888,35.888
	c12.702,0,23.854-6.605,30.233-16.561C312.249,449.549,304.725,452.281,296.561,452.281z"/>
<circle style="fill:#E86478;" cx="220.029" cy="425.63" r="35.888"/>
<circle style="opacity:0.1;enable-background:new    ;" cx="220.029" cy="425.63" r="35.888"/>
<path style="opacity:0.1;enable-background:new    ;" d="M228.548,452.281c-19.82,0-35.888-16.068-35.888-35.888
	c0-7.119,2.081-13.747,5.656-19.327c-8.609,6.556-14.169,16.909-14.169,28.565c0,19.82,16.068,35.888,35.888,35.888
	c12.702,0,23.854-6.605,30.232-16.561C244.236,449.549,236.712,452.281,228.548,452.281z"/>
<circle style="fill:#E86478;" cx="254.039" cy="457.86" r="35.888"/>
<path style="opacity:0.1;enable-background:new    ;" d="M262.554,484.507c-19.82,0-35.888-16.068-35.888-35.888
	c0-7.118,2.081-13.747,5.656-19.327c-8.609,6.556-14.169,16.909-14.169,28.565c0,19.82,16.068,35.888,35.888,35.888
	c12.702,0,23.854-6.605,30.232-16.561C278.243,481.776,270.719,484.507,262.554,484.507z"/>
<path d="M506.423,204.076c3.76-4.461,5.309-10.314,4.251-16.061c-1.058-5.746-4.591-10.663-9.693-13.493
	c-11.479-6.365-27.795-13.144-45.462-13.395c-1.951-5.839-2.619-12.015-1.889-18.118c0.056-0.468,0.097-0.959,0.145-1.439
	c7.866-4.148,14.303-9.012,18.653-12.712c3.74-3.18,5.884-7.812,5.885-12.708c0-4.896-2.145-9.528-5.885-12.71
	c-3.408-2.898-8.335-6.716-14.314-10.295c6.329-13.884,8.687-28.334,9.52-38.64c0.443-5.494-1.531-10.874-5.417-14.76
	c-3.887-3.887-9.267-5.862-14.76-5.417c-10.305,0.832-24.755,3.19-38.64,9.519c-3.579-5.979-7.396-10.905-10.295-14.313
	c-3.181-3.74-7.813-5.884-12.709-5.884s-9.528,2.144-12.709,5.884c-3.681,4.327-8.513,10.721-12.647,18.531
	c-0.539,0.053-1.087,0.099-1.612,0.162c-14.36,1.717-28.84-4.281-37.783-15.651C304.779,11.874,280.351,0,254.04,0
	c-26.31,0-50.738,11.874-67.021,32.578c-2.517,3.199-5.474,5.975-8.812,8.308c-15.35-11.617-34.309-15.773-48.379-17.142
	c-5.808-0.564-11.506,1.48-15.637,5.611c-4.131,4.131-6.176,9.831-5.611,15.637c0.243,2.491,0.573,5.137,1.016,7.888
	c-11.508,4.244-22.051,10.968-30.788,19.704c-14.692,14.692-23.426,34.207-24.767,54.735c-7.014-1.743-13.595-2.632-18.95-3.064
	c-5.199-0.421-10.286,1.448-13.962,5.124c-3.676,3.676-5.544,8.765-5.125,13.962c0.751,9.296,2.859,22.278,8.471,34.829
	c-5.247,3.189-9.574,6.549-12.597,9.12c-3.553,3.022-5.591,7.425-5.591,12.078c0.001,4.653,2.039,9.055,5.591,12.076
	c0.564,0.48,1.169,0.982,1.809,1.5c-4.891,10.914-7.463,22.844-7.463,34.872c0,9.111,1.434,18.042,4.253,26.612
	c-2.568,3.477-4.807,6.907-6.722,10.111c-2.993,5.008-3.58,11.035-1.611,16.535c1.969,5.501,6.249,9.786,11.74,11.756
	c8.217,2.949,18.577,5.729,29.735,6.501c7.653,8.292,11.671,19.431,11.056,30.665c-7.056,3.762-12.833,8.129-16.757,11.466
	c-3.553,3.022-5.591,7.424-5.591,12.077s2.038,9.055,5.592,12.078c3.022,2.571,7.35,5.931,12.597,9.119
	c-5.612,12.552-7.72,25.534-8.471,34.83c-0.42,5.197,1.448,10.286,5.124,13.961c3.676,3.677,8.762,5.548,13.962,5.125
	c9.296-0.751,22.278-2.859,34.829-8.471c3.188,5.245,6.549,9.573,9.12,12.597c3.023,3.553,7.424,5.591,12.077,5.591
	s9.055-2.038,12.078-5.592c1.254-1.475,2.599-3.149,3.971-4.983c5.35,0.368,10.723,0.242,16.029-0.392
	c9.773-1.164,19.612,1.201,27.785,6.537c-6.382,12.805-8.969,26.432-9.971,36.717c-0.565,5.807,1.48,11.507,5.612,15.638
	c3.679,3.679,8.601,5.704,13.735,5.703c0.631,0,1.266-0.031,1.901-0.092c12.929-1.258,30.889-5.01,45.985-15.441
	c5.931,3.047,12.644,4.779,19.758,4.779s13.827-1.732,19.758-4.779c15.096,10.431,33.056,14.183,45.984,15.441
	c0.636,0.062,1.27,0.092,1.902,0.092c5.134,0,10.057-2.025,13.736-5.703c4.131-4.131,6.177-9.831,5.612-15.638
	c-1.001-10.285-3.589-23.911-9.971-36.717c8.173-5.336,18.014-7.702,27.784-6.538c14.38,1.719,28.857-0.234,42.173-5.628
	c15.422,11.857,34.598,16.069,48.792,17.451c0.636,0.062,1.27,0.092,1.902,0.092c5.134,0,10.057-2.024,13.735-5.703
	c4.131-4.131,6.177-9.831,5.612-15.638c-1.479-15.185-6.198-36.069-20.047-51.96c3.041-10.797,3.949-22.25,2.617-33.397
	c-1.172-9.812,1.199-19.772,6.679-28.045c2.287-3.454,1.342-8.107-2.111-10.395c-3.455-2.287-8.107-1.342-10.395,2.111
	c-7.441,11.235-10.661,24.769-9.067,38.108c0.806,6.743,0.604,13.618-0.541,20.318c-14.768-9.998-32.224-13.717-45.394-15
	c-5.804-0.563-11.506,1.48-15.638,5.612c-4.131,4.131-6.176,9.831-5.611,15.637c1.39,14.283,5.649,33.607,17.675,49.077
	c-9.209,2.763-18.93,3.621-28.601,2.466c-10.627-1.272-21.31,0.539-30.846,5.018c1.073-3.784,1.656-7.773,1.656-11.899
	c0-14.551-7.208-27.442-18.232-35.318c2.721-7.046,4.269-14.295,5.008-21.356c4.031-3.29,7.446-7.22,10.157-11.746
	c4.069-6.792,8.965-13.117,14.547-18.83c6.923,5.09,13.125,7.679,17.345,8.977c5.464,1.681,11.453,2.5,17.561,2.5
	c10.841,0,22.055-2.582,31.366-7.513l0,0c14.557-7.71,26.977-22.489,31.641-37.654c2.571-8.358,5.333-25.981-5.048-50.1
	c-1.844-4.285-5.453-7.527-9.9-8.895c-4.45-1.368-9.255-0.713-13.188,1.794c-3.346,2.134-7.831,5.283-12.419,9.359
	c-6.237-5.457-12.994-9.736-19.279-13.036c0.274-7.038,1.259-14.015,2.959-20.793c4.856-19.366-3.389-39.271-20.517-49.532
	c-7.132-4.273-13.756-9.447-19.688-15.379c-5.933-5.933-11.107-12.557-15.379-19.688c-1.651-2.755-3.576-5.295-5.738-7.613
	c11.441-19.167,11.468-41.91,9.42-57.763c-0.747-5.787-4.015-10.885-8.965-13.988c-4.95-3.103-10.962-3.822-16.495-1.973
	c-15.476,5.171-36.477,15.41-48.643,34.819c-5.723,9.13-8.767,19.135-10.17,28.856c-6.27-0.382-12.48-1.338-18.533-2.856
	c-19.365-4.855-39.271,3.39-49.531,20.517c-4.271,7.13-9.446,13.754-15.379,19.688c-5.934,5.934-12.558,11.108-19.689,15.38
	c-17.127,10.261-25.372,30.166-20.517,49.532c2.022,8.063,3.047,16.406,3.047,24.796c0,8.39-1.025,16.733-3.047,24.796
	c-4.855,19.366,3.39,39.271,20.517,49.531c7.131,4.272,13.755,9.446,19.688,15.379c4.639,4.639,8.806,9.704,12.447,15.099
	c-1.619,0.214-3.117,0.444-4.472,0.671c-5.342,0.897-9.995,4.07-12.766,8.707c-2.77,4.637-3.36,10.238-1.618,15.367
	c3.483,10.256,9.767,24.548,20.291,36.725c-1.016,3.677-1.57,7.544-1.57,11.539c0,4.125,0.583,8.114,1.656,11.898
	c-9.535-4.479-20.218-6.29-30.846-5.018c-1.711,0.204-3.431,0.338-5.156,0.416c1.661-3.461,3.13-7.159,4.243-11.059
	c1.138-3.982-1.169-8.134-5.152-9.271c-3.981-1.138-8.133,1.169-9.271,5.152c-1.913,6.698-5.201,12.779-8.591,17.793
	c-0.03,0.042-0.059,0.086-0.088,0.128c-1.926,2.836-3.881,5.332-5.632,7.392c-0.065,0.077-0.264,0.31-0.651,0.31
	s-0.586-0.233-0.651-0.31c-3.036-3.57-7.362-9.266-10.728-16.129c-0.911-1.856-2.547-3.254-4.523-3.864
	c-1.975-0.608-4.115-0.376-5.913,0.644c-12.102,6.87-25.94,9.225-35.419,9.99c-1.102,0.085-1.818-0.451-2.148-0.78
	c-0.329-0.329-0.868-1.045-0.779-2.147c0.765-9.477,3.12-23.316,9.99-35.419c1.021-1.798,1.254-3.938,0.644-5.914
	c-0.609-1.976-2.007-3.612-3.864-4.523c-6.866-3.367-12.561-7.692-16.129-10.727c-0.077-0.065-0.31-0.264-0.31-0.652
	s0.233-0.586,0.31-0.651c7.017-5.968,21.113-15.979,36.685-15.979c11.905,0,25.844,5.94,34.685,14.781
	c4.783,4.783,8.886,11.302,11.554,18.357c1.465,3.875,5.794,5.827,9.668,4.362s5.828-5.793,4.362-9.668
	c-3.404-9.001-8.723-17.403-14.978-23.658c-11.648-11.648-29.426-19.174-45.291-19.174c-5.124,0-10.063,0.776-14.723,2.053
	c-0.606-8.951-3.344-17.652-7.923-25.347c3.995-0.638,8.002-1.628,11.967-3.047c21.567-7.722,36.071-26.039,44.44-40.044
	c2.993-5.008,3.58-11.035,1.61-16.536c-1.969-5.5-6.248-9.785-11.739-11.755c-15.359-5.511-38.194-10.46-59.758-2.739l0,0
	c-10.11,3.62-18.668,9.568-25.77,16.309c-0.797-4.258-1.201-8.597-1.201-12.988c0-8.99,1.742-17.911,5.069-26.198
	c8.797,5.047,19.875,9.379,31.989,9.379c15.866,0,33.644-7.526,45.291-19.174c11.648-11.648,19.174-29.426,19.174-45.291
	c0-20.372-12.25-37.817-19.552-46.402c-3.022-3.554-7.425-5.592-12.079-5.592c-4.653,0-9.055,2.038-12.077,5.592
	c-2.571,3.023-5.932,7.351-9.12,12.596c-0.348-0.156-0.697-0.299-1.046-0.449c0.156-18.36,7.489-36.034,20.541-49.086
	c6.744-6.744,14.789-12.03,23.566-15.546c3.45,11.348,9.187,23.068,18.662,32.544c10.443,10.443,24.802,17.576,42.679,21.2
	c0.503,0.102,1.004,0.151,1.498,0.151c3.494,0,6.622-2.455,7.343-6.011c0.823-4.06-1.801-8.018-5.86-8.841
	c-14.938-3.028-26.731-8.784-35.053-17.105c-5.805-5.805-12.837-15.92-16.625-32.701c-0.045-0.308-0.103-0.616-0.189-0.924
	c-0.011-0.041-0.028-0.079-0.04-0.119c-0.807-3.766-1.454-7.853-1.887-12.299c-0.177-1.815,0.731-3.021,1.288-3.578
	c0.558-0.557,1.761-1.466,3.578-1.288c22.765,2.217,36.273,9.961,43.947,16.769c0.007,0.007,0.015,0.013,0.023,0.02
	c0.744,0.661,1.436,1.313,2.074,1.951c11.764,11.765,16.338,28.682,18.104,40.802c0.598,4.099,4.407,6.94,8.504,6.34
	c4.099-0.598,6.938-4.404,6.34-8.503c-1.882-12.915-6.601-30.536-18.191-44.628c3.581-2.79,6.81-5.982,9.634-9.573
	C212.23,24.787,232.361,15,254.04,15c21.68,0,41.811,9.787,55.232,26.851C320.05,55.556,336.743,63.517,354,63.517
	c0.06,0,0.119-0.005,0.179-0.005c-1.48,5.227-2.39,10.779-2.39,16.548c0,17.252,8.188,36.586,20.858,49.258
	c12.671,12.671,32.006,20.858,49.257,20.858c5.729,0,11.245-0.898,16.441-2.36c-0.009,5,0.641,9.982,1.943,14.82
	c-21.476,4.721-37.976,19.855-48.153,31.93c-3.76,4.461-5.31,10.315-4.252,16.061c1.058,5.746,4.591,10.664,9.693,13.493
	c11.698,6.486,28.412,13.408,46.469,13.407c3.97,0,8.008-0.335,12.069-1.083c10.113-1.862,19.16-6.064,27.017-11.254
	c2.47,7.238,3.725,14.815,3.725,22.628c0,14.04-4.127,27.588-11.936,39.179c-2.315,3.435-1.406,8.096,2.03,10.411
	c1.286,0.866,2.742,1.281,4.184,1.281c2.411,0,4.779-1.161,6.227-3.31c9.483-14.076,14.496-30.522,14.496-47.56
	c0-11.243-2.141-22.091-6.356-32.331C499.692,211.65,503.348,207.724,506.423,204.076z M386.481,379.515
	c-0.177-1.815,0.731-3.02,1.288-3.577c0.509-0.509,1.559-1.311,3.121-1.311c0.147,0,0.3,0.007,0.457,0.022
	c24.999,2.434,38.837,11.535,46.043,18.741s16.306,21.043,18.74,46.042c0.177,1.815-0.731,3.021-1.289,3.578
	c-0.557,0.557-1.766,1.462-3.577,1.288c-22.721-2.212-36.22-9.931-43.903-16.729c-0.066-0.061-0.132-0.121-0.199-0.18
	c-0.693-0.62-1.342-1.233-1.941-1.831C398.015,418.351,388.914,404.514,386.481,379.515z M186.845,496.978
	c-1.811,0.179-3.02-0.731-3.577-1.288c-0.557-0.557-1.465-1.762-1.289-3.578c0.927-9.522,3.38-22.311,9.612-33.682
	c5.661,4.911,12.622,8.375,20.329,9.824c1.72,6.967,5.125,13.274,9.761,18.465C210.07,493.407,196.766,496.012,186.845,496.978z
	 M210.989,452.546c-5.684-1.898-10.545-5.532-13.971-10.271c-0.136-0.221-0.285-0.436-0.445-0.644
	c-3.11-4.561-4.926-10.07-4.926-16.002c0-15.653,12.735-28.388,28.388-28.388c11.954,0,22.237,7.31,26.406,17.907
	C227.842,418.45,213.309,433.632,210.989,452.546z M254.04,486.245c-15.653,0-28.388-12.735-28.388-28.388
	s12.735-28.388,28.388-28.388s28.388,12.735,28.388,28.388C282.429,473.51,269.694,486.245,254.04,486.245z M326.102,492.112
	c0.177,1.815-0.731,3.021-1.289,3.578c-0.557,0.557-1.764,1.459-3.578,1.288c-9.921-0.965-23.225-3.57-34.836-10.258
	c4.635-5.191,8.04-11.498,9.761-18.465c7.707-1.449,14.669-4.913,20.33-9.824C322.722,469.801,325.175,482.59,326.102,492.112z
	 M316.435,425.63c0,5.931-1.817,11.441-4.926,16.002c-0.161,0.208-0.309,0.422-0.445,0.644c-3.426,4.739-8.288,8.372-13.972,10.271
	c-2.298-18.734-16.575-33.807-34.917-37.302c-0.066-0.273-0.144-0.54-0.215-0.811c4.443-10.371,14.656-17.192,26.087-17.192
	C303.701,397.242,316.435,409.977,316.435,425.63z M394.839,272.411c1.417,1.503,3.391,2.354,5.457,2.354h0.006
	c2.068-0.002,4.043-0.857,5.459-2.364c5.236-5.571,11.045-9.744,14.996-12.264c0.084-0.053,0.342-0.219,0.713-0.105
	c0.371,0.114,0.492,0.395,0.531,0.487c3.642,8.461,9.066,24.876,4.489,39.761c-3.5,11.379-13.275,22.956-24.324,28.807l0,0
	c-11.05,5.851-26.119,7.431-37.498,3.932c-14.885-4.578-25.414-18.291-30.366-26.056c-0.054-0.085-0.219-0.343-0.104-0.714
	c0.114-0.371,0.395-0.492,0.487-0.531c4.305-1.852,11.02-4.313,18.57-5.512c2.042-0.325,3.859-1.478,5.023-3.187
	c1.163-1.71,1.569-3.823,1.123-5.842c-3.009-13.586-1.191-27.506,0.863-36.791c0.239-1.079,0.965-1.605,1.378-1.824
	c0.264-0.14,0.705-0.315,1.258-0.315c0.31,0,0.654,0.055,1.022,0.202C372.757,255.969,385.292,262.288,394.839,272.411z
	 M261.952,129.423c0.044-0.336,0.074-0.676,0.072-1.024c0-0.045-0.007-0.089-0.008-0.134c1.024-13.263,4.918-22.456,8.639-28.393
	c9.807-15.644,27.539-24.165,40.689-28.56c0.504-0.168,0.979-0.236,1.415-0.236c1.058,0,1.887,0.396,2.359,0.691
	c0.668,0.418,1.822,1.391,2.056,3.199c3.217,24.911-2.56,40.433-7.973,49.067c-0.689,1.099-1.426,2.155-2.189,3.185
	c-0.032,0.039-0.067,0.074-0.099,0.114c-0.033,0.042-0.059,0.086-0.09,0.128c-10.108,13.474-26.159,21.072-38.31,25.133
	c-1.727,0.578-3.107-0.037-3.774-0.456c-0.667-0.419-1.822-1.391-2.056-3.199C261.741,141.641,261.586,135.171,261.952,129.423z
	 M174.94,326.917c-6.803-6.802-14.401-12.737-22.586-17.64c-11.416-6.84-16.912-20.108-13.676-33.016
	c2.32-9.255,3.497-18.825,3.497-28.444c0-9.619-1.177-19.189-3.497-28.444c-3.236-12.909,2.259-26.177,13.676-33.017
	c8.185-4.903,15.783-10.838,22.586-17.64c6.802-6.803,12.737-14.402,17.64-22.586c6.838-11.417,20.11-16.913,33.015-13.675
	c6.921,1.735,14.018,2.83,21.18,3.272c0.025,5.448,0.442,10.575,1.031,15.133c0.747,5.786,4.015,10.885,8.965,13.988
	c3.145,1.971,6.717,2.98,10.324,2.98c2.071,0,4.153-0.333,6.171-1.007c12.252-4.094,27.953-11.386,40.006-23.87
	c0.798,1.013,1.556,2.061,2.227,3.18c4.903,8.185,10.838,15.784,17.64,22.585c6.801,6.801,14.4,12.736,22.585,17.64
	c11.417,6.84,16.913,20.108,13.676,33.016c-1.498,5.973-2.511,12.078-3.047,18.243c-3.968-0.791-8.106-0.229-11.734,1.693
	c-4.595,2.433-7.877,6.749-9.003,11.839c-2.015,9.106-3.816,22.134-2.142,35.78c-5.951,1.505-11.075,3.445-14.721,5.014
	c-4.285,1.844-7.526,5.453-8.894,9.9s-0.714,9.253,1.794,13.188c3.308,5.189,6.727,9.57,10.13,13.286
	c-5.104,5.275-9.696,11.005-13.702,17.099c-0.302-2.866-0.684-5.589-1.109-8.123c-0.897-5.342-4.07-9.995-8.707-12.765
	c-4.637-2.771-10.239-3.36-15.367-1.618c-5.231,1.777-12.498,4.634-20.113,8.834c-10.277-15.265-23.831-26.718-33.967-33.942
	c-4.994-3.56-11.26-4.744-17.187-3.25c-5.929,1.493-10.885,5.505-13.597,11.007c-5.503,11.165-12.012,27.672-13.829,45.984
	c-0.095-0.001-0.185,0.001-0.28,0.001c-0.476-0.665-0.93-1.344-1.346-2.04C187.678,341.319,181.743,333.72,174.94,326.917z
	 M172.128,372.542c-0.445-1.31-0.008-2.347,0.292-2.849s1.007-1.378,2.371-1.607c6.162-1.034,15.645-2.088,25.827-1.246
	c2.054,0.168,4.1-0.517,5.637-1.901c1.537-1.383,2.434-3.34,2.48-5.407c0.413-18.579,7.165-36.001,12.756-47.344
	c1.045-2.12,2.833-2.848,3.808-3.093c0.971-0.246,2.892-0.452,4.817,0.92c10.298,7.34,24.499,19.482,33.667,35.648
	c1.02,1.799,2.737,3.096,4.746,3.586c2.007,0.491,4.13,0.13,5.864-0.997c8.569-5.568,17.419-9.132,23.333-11.141
	c1.31-0.446,2.347-0.009,2.849,0.291s1.378,1.006,1.607,2.37c1.662,9.909,3.274,27.835-2.573,44.045
	c-3.684-1.02-7.558-1.576-11.561-1.576c-13.514,0-25.911,6.242-33.978,16.404c-7.964-10.056-20.273-16.404-34.034-16.404
	c-14.018,0-26.498,6.688-34.435,17.035C178.961,390.113,174.693,380.092,172.128,372.542z M24.421,280.854
	c0.262-0.285,0.502-0.586,0.716-0.905c10.302-12.771,20.602-18.642,28.115-21.332l0,0c17.384-6.222,36.586-1.947,49.636,2.735
	c1.716,0.616,2.418,1.952,2.683,2.694c0.266,0.742,0.572,2.22-0.364,3.785c-12.884,21.561-27.025,30.181-36.62,33.617
	c-6.848,2.452-13.978,3.27-20.903,3.08c-0.359-0.037-0.719-0.051-1.079-0.037c-10.261-0.437-20.013-3.036-27.654-5.778
	c-1.716-0.616-2.419-1.952-2.684-2.694c-0.266-0.742-0.571-2.219,0.364-3.785C19.193,287.947,21.805,284.179,24.421,280.854z
	 M69.302,149.196c1.798,1.02,3.938,1.253,5.914,0.644c1.976-0.609,3.612-2.007,4.523-3.864c3.366-6.864,7.692-12.56,10.728-16.13
	c0.065-0.077,0.263-0.309,0.651-0.309c0.388-0.001,0.586,0.233,0.651,0.31c5.967,7.017,15.979,21.112,15.979,36.684
	c0,11.905-5.94,25.844-14.781,34.685c-8.84,8.841-22.779,14.781-34.685,14.781c-15.573,0-29.668-10.011-36.685-15.979
	c-0.077-0.065-0.31-0.263-0.31-0.651s0.233-0.586,0.31-0.651c3.569-3.036,9.264-7.36,16.13-10.729
	c1.856-0.911,3.254-2.547,3.864-4.522c0.609-1.976,0.376-4.116-0.645-5.913c-6.87-12.101-9.225-25.941-9.991-35.418
	c-0.089-1.102,0.451-1.819,0.78-2.148c0.305-0.305,0.941-0.789,1.908-0.789c0.078,0,0.158,0.003,0.24,0.01
	c6.771,0.547,15.768,1.916,24.766,5.151c0.09,0.037,0.183,0.066,0.275,0.1C62.43,145.732,65.933,147.284,69.302,149.196z
	 M421.904,135.174c-13.27,0-28.803-6.617-38.651-16.464c-9.848-9.849-16.465-25.381-16.465-38.651
	c0-17.356,11.115-33.016,17.741-40.806c0.423-0.497,0.931-0.602,1.282-0.602c0.352,0,0.859,0.104,1.282,0.602
	c3.364,3.956,8.159,10.27,11.893,17.884c0.911,1.856,2.547,3.254,4.523,3.864c1.975,0.609,4.115,0.376,5.914-0.644
	c13.421-7.619,28.746-10.228,39.24-11.076c1.507-0.128,2.493,0.62,2.946,1.072c0.453,0.453,1.194,1.438,1.073,2.946
	c-0.848,10.494-3.458,25.82-11.076,39.24c-1.02,1.798-1.254,3.938-0.644,5.914c0.609,1.976,2.007,3.612,3.864,4.523
	c7.614,3.734,13.928,8.529,17.884,11.893c0.498,0.424,0.603,0.932,0.603,1.283c0,0.352-0.104,0.859-0.603,1.283
	C454.92,124.059,439.26,135.174,421.904,135.174z M494.953,194.409c-4.384,5.202-8.706,9.445-12.878,12.914
	c-0.338,0.236-0.656,0.493-0.944,0.774c-10.854,8.769-20.631,12.286-27.733,13.594c-18.158,3.343-36.423-3.969-48.547-10.691
	c-1.595-0.884-2.072-2.316-2.215-3.091c-0.143-0.774-0.207-2.282,0.969-3.677c16.187-19.206,31.532-25.436,41.555-27.282l0,0
	c3.135-0.577,6.272-0.837,9.381-0.837c14.899,0,29.135,5.966,39.165,11.527c1.595,0.884,2.073,2.316,2.215,3.091
	C496.065,191.507,496.128,193.015,494.953,194.409z"/>
<g>
</g>
<g>
</g>
<g>
</g>
<g>
</g>
<g>
</g>
<g>
</g>
<g>
</g>
<g>
</g>
<g>
</g>
<g>
</g>
<g>
</g>
<g>
</g>
<g>
</g>
<g>
</g>
<g>
</g>
</svg>
