<?xml version="1.0" encoding="iso-8859-1"?>
<!-- Generator: Adobe Illustrator 19.0.0, SVG Export Plug-In . SVG Version: 6.00 Build 0)  -->
<svg version="1.1" id="Capa_1" xmlns="http://www.w3.org/2000/svg" xmlns:xlink="http://www.w3.org/1999/xlink" x="0px" y="0px"
	 viewBox="0 0 512 512" style="enable-background:new 0 0 512 512;" xml:space="preserve">
<circle style="fill:#92D2E7;" cx="256" cy="228.08" r="220.58"/>
<g>
	<path style="fill:#FFFFFF;" d="M435.188,191.484c-3.374,0-6.439-2.292-7.278-5.716c-3.063-12.489-7.516-24.671-13.235-36.208
		c-1.84-3.711-0.323-8.211,3.388-10.051c3.71-1.841,8.211-0.323,10.051,3.388c6.208,12.52,11.041,25.742,14.365,39.298
		c0.986,4.023-1.475,8.084-5.498,9.07C436.38,191.413,435.779,191.484,435.188,191.484z"/>
	<path style="fill:#FFFFFF;" d="M405.204,127.024c-2.316,0-4.599-1.068-6.067-3.083c-15.202-20.858-35.156-38.464-57.705-50.916
		c-3.626-2.002-4.942-6.565-2.94-10.191c2.002-3.626,6.564-4.943,10.191-2.94c24.454,13.504,46.092,32.596,62.576,55.212
		c2.439,3.348,1.704,8.039-1.644,10.479C408.282,126.556,406.736,127.024,405.204,127.024z"/>
</g>
<path style="fill:#61C6AD;" d="M208.603,352.729c0-26.974-21.867-48.84-48.84-48.84s-48.84,21.867-48.84,48.84H208.603z"/>
<path style="opacity:0.15;enable-background:new    ;" d="M208.603,352.729c0-26.974-21.867-48.84-48.84-48.84
	s-48.84,21.867-48.84,48.84H208.603z"/>
<path style="fill:#EEEDED;" d="M159.762,303.889c-15.042,0-28.491,6.805-37.45,17.499c9.139,5.516,22.524,9.002,37.45,9.002
	s28.31-3.486,37.45-9.002C188.253,310.694,174.805,303.889,159.762,303.889z"/>
<polygon style="fill:#AA715F;" points="334.228,242.531 256,206.649 177.772,242.531 177.772,352.729 334.228,352.729 "/>
<path style="opacity:0.1;enable-background:new    ;" d="M256,206.649l-78.228,35.881v21.613l72.603-33.301
	c3.571-1.638,7.679-1.638,11.25,0l72.603,33.301V242.53L256,206.649z"/>
<path style="opacity:0.1;enable-background:new    ;" d="M284.137,241.723h-41.116c-4.021,0-7.28,3.26-7.28,7.28
	c0,4.021,3.26,7.28,7.28,7.28h41.116c4.021,0,7.28-3.259,7.28-7.28C291.417,244.983,288.158,241.723,284.137,241.723z
	 M208.603,283.902h-30.831v14.561h30.831c4.021,0,7.28-3.26,7.28-7.28C215.883,287.162,212.624,283.902,208.603,283.902z
	 M308.66,314.675c-4.021,0-7.28,3.259-7.28,7.28s3.26,7.28,7.28,7.28h25.568v-14.56H308.66z"/>
<path style="fill:#AA715F;" d="M334.228,228.077h-37.589V174.48c0-4.702,3.811-8.513,8.513-8.513h20.563
	c4.701,0,8.513,3.811,8.513,8.513V228.077z"/>
<path style="fill:#EEEDED;" d="M160.582,227.567l84.395-38.71c6.998-3.21,15.048-3.21,22.046,0l84.395,38.71
	c3.706,1.7,6.082,5.404,6.082,9.481v16.219c0,4.234-4.383,7.046-8.231,5.281l-87.644-40.2c-3.571-1.638-7.679-1.638-11.25,0
	l-87.644,40.2c-3.848,1.765-8.231-1.047-8.231-5.281v-16.219C154.5,232.97,156.876,229.267,160.582,227.567z"/>
<path style="opacity:0.15;enable-background:new    ;" d="M268.813,291.182h-25.627c-4.88,0-8.837,3.957-8.837,8.837v52.71h43.301
	v-52.71C277.65,295.139,273.694,291.182,268.813,291.182z"/>
<g>
	<circle style="fill:#EEEDED;" cx="99.86" cy="198.6" r="13.677"/>
	<circle style="fill:#EEEDED;" cx="149.24" cy="97.91" r="14.436"/>
	<circle style="fill:#EEEDED;" cx="223.6" cy="141.46" r="14.436"/>
	<circle style="fill:#EEEDED;" cx="296.64" cy="92.99" r="14.436"/>
	<circle style="fill:#EEEDED;" cx="405.12" cy="237.2" r="14.436"/>
	<path style="fill:#EEEDED;" d="M74.013,352.729C113.765,410.653,180.44,448.654,256,448.654s142.235-38,181.987-95.924
		L74.013,352.729L74.013,352.729z"/>
</g>
<path style="fill:#61C6AD;" d="M406.341,352.729c0-26.974-21.867-48.84-48.84-48.84c-26.974,0-48.841,21.867-48.841,48.84H406.341z"
	/>
<path style="opacity:0.15;enable-background:new    ;" d="M406.341,352.729c0-26.974-21.867-48.84-48.84-48.84
	c-26.974,0-48.841,21.867-48.841,48.84H406.341z"/>
<path style="fill:#EEEDED;" d="M357.5,303.889c-15.042,0-28.491,6.805-37.45,17.499c9.139,5.516,22.524,9.002,37.45,9.002
	c14.926,0,28.31-3.486,37.45-9.002C385.991,310.694,372.542,303.889,357.5,303.889z"/>
<path style="opacity:0.1;enable-background:new    ;" d="M283.849,417.385c-121.821,0-220.577-98.756-220.577-220.577
	c0-48.767,15.838-93.828,42.633-130.346c-43.35,40.278-70.482,97.773-70.482,161.615c0,121.821,98.756,220.577,220.577,220.577
	c73.055,0,137.802-35.524,177.944-90.23C394.574,395.004,341.829,417.385,283.849,417.385z"/>
<path style="fill:#485458;" d="M401.349,413.702H110.651c-20.617,0-38.313,14.679-42.121,34.942l-6.983,37.153
	c-1.826,9.717,5.628,18.703,15.515,18.703h357.877c9.888,0,17.342-8.986,15.515-18.703l-6.983-37.153
	C439.662,428.382,421.966,413.702,401.349,413.702z"/>
<path style="opacity:0.1;enable-background:new    ;" d="M107.118,448.644c3.808-20.262,21.504-34.942,42.121-34.942h-38.588
	c-20.617,0-38.313,14.679-42.121,34.942l-6.983,37.153c-1.826,9.717,5.628,18.703,15.515,18.703h38.588
	c-9.888,0-17.342-8.986-15.515-18.703L107.118,448.644z"/>
<path style="fill:#F8CA4F;" d="M311.529,438.16H200.471c-4.606,0-8.339,3.734-8.339,8.339v25.204c0,4.606,3.734,8.339,8.339,8.339
	h111.058c4.606,0,8.339-3.734,8.339-8.339v-25.204C319.868,441.893,316.135,438.16,311.529,438.16z"/>
<path style="opacity:0.15;enable-background:new    ;" d="M279.364,466.601h-46.729c-4.142,0-7.5-3.358-7.5-7.5s3.358-7.5,7.5-7.5
	h46.729c4.142,0,7.5,3.358,7.5,7.5S283.506,466.601,279.364,466.601z"/>
<path d="M311.529,487.543c8.734,0,15.839-7.105,15.839-15.839V446.5c0-8.734-7.105-15.839-15.839-15.839H200.471
	c-8.734,0-15.839,7.105-15.839,15.839v25.204c0,8.734,7.105,15.839,15.839,15.839H311.529z M199.632,471.703v-25.204
	c0-0.463,0.376-0.839,0.839-0.839h111.058c0.463,0,0.839,0.376,0.839,0.839v25.204c0,0.463-0.376,0.839-0.839,0.839H200.471
	C200.008,472.543,199.632,472.166,199.632,471.703z M450.841,447.258c-4.472-23.79-25.286-41.056-49.492-41.056h-2.878
	c53.992-43.116,85.606-108.119,85.606-178.125c0-60.921-23.724-118.196-66.802-161.275C374.197,23.724,316.921,0,256,0
	c-52.334,0-103.46,18.17-143.959,51.164c-3.211,2.616-3.693,7.34-1.077,10.551c2.616,3.211,7.339,3.693,10.551,1.078
	C159.346,31.973,207.107,15,256,15c117.491,0,213.077,95.586,213.077,213.077c0,42.462-12.468,82.945-35.006,117.152h-20.744
	c-3.681-27.531-27.304-48.84-55.827-48.84c-5.475,0-10.763,0.8-15.772,2.263V263.34l4.414,2.025c4.14,1.898,8.9,1.565,12.735-0.895
	c3.834-2.459,6.123-6.648,6.123-11.203v-16.219c0-6.987-4.104-13.385-10.455-16.298l-12.817-5.879V174.48
	c0-8.83-7.184-16.013-16.013-16.013h-20.563c-8.83,0-16.013,7.183-16.013,16.013v16.27l-18.989-8.71
	c-8.993-4.126-19.308-4.126-28.3,0l-84.395,38.71c-6.351,2.913-10.455,9.31-10.455,16.297v16.219c0,4.555,2.289,8.744,6.123,11.203
	c2.187,1.403,4.675,2.114,7.178,2.114c1.885,0,3.778-0.404,5.557-1.22l4.414-2.025v34.035c-3.449-0.655-6.959-0.986-10.509-0.986
	c-28.522,0-52.146,21.309-55.827,48.84H77.929c-22.538-34.208-35.006-74.69-35.006-117.152c0-50.617,18.056-99.676,50.84-138.141
	c2.687-3.153,2.31-7.886-0.843-10.573c-3.152-2.687-7.886-2.31-10.573,0.843c-35.096,41.177-54.424,93.692-54.424,147.872
	c0,70.007,31.614,135.01,85.606,178.125h-2.878c-24.206,0-45.021,17.267-49.492,41.056l-6.983,37.153
	c-1.284,6.832,0.525,13.819,4.963,19.169C63.577,508.931,70.11,512,77.062,512h27.628c4.142,0,7.5-3.358,7.5-7.5s-3.358-7.5-7.5-7.5
	H77.062c-2.474,0-4.799-1.092-6.378-2.996c-1.58-1.904-2.223-4.39-1.766-6.822l6.983-37.153c3.14-16.703,17.754-28.827,34.75-28.827
	h26.134c0.005,0,0.009,0.001,0.014,0.001s0.011-0.001,0.016-0.001h180.21c4.142,0,7.5-3.358,7.5-7.5s-3.358-7.5-7.5-7.5H139.072
	c-19.425-12.772-36.313-28.332-50.288-45.973h22.129c0.003,0,0.006,0,0.01,0c0.003,0,0.006,0,0.01,0h66.831c0.003,0,0.006,0,0.01,0
	s0.006,0,0.01,0h245.434c-13.975,17.642-30.863,33.201-50.288,45.973h-20.065c-4.142,0-7.5,3.358-7.5,7.5s3.358,7.5,7.5,7.5h22.323
	c0.005,0,0.011,0.001,0.016,0.001s0.009-0.001,0.014-0.001h26.133c16.996,0,31.61,12.124,34.75,28.827l6.983,37.154
	c0.457,2.431-0.186,4.918-1.766,6.821c-1.579,1.904-3.904,2.996-6.378,2.996H140.278c-4.142,0-7.5,3.358-7.5,7.5s3.358,7.5,7.5,7.5
	h294.661c6.952,0,13.484-3.069,17.923-8.419s6.248-12.337,4.963-19.169L450.841,447.258z M170.272,345.229h-51.156
	c3.54-19.225,20.413-33.84,40.646-33.84c3.573,0,7.089,0.466,10.509,1.368L170.272,345.229L170.272,345.229z M304.139,174.48
	c0-0.559,0.454-1.013,1.013-1.013h20.563c0.559,0,1.013,0.454,1.013,1.013v33.511l-22.589-10.361V174.48z M162,250.631v-13.584
	c0-1.142,0.671-2.188,1.709-2.664l84.395-38.71c5.018-2.302,10.774-2.302,15.792,0l84.395,38.71
	c1.038,0.477,1.709,1.522,1.709,2.664v13.584l-85.248-39.101c-2.781-1.276-5.766-1.914-8.752-1.914
	c-2.985,0-5.971,0.638-8.752,1.914L162,250.631z M270.15,345.229h-28.3v-45.21c0-0.737,0.6-1.337,1.337-1.337h25.627
	c0.737,0,1.337,0.6,1.337,1.337v45.21H270.15z M285.15,345.229v-45.21c0-9.008-7.329-16.337-16.337-16.337h-25.627
	c-9.008,0-16.337,7.329-16.337,16.337v45.21h-41.578v-38.053c0-0.003,0-0.006,0-0.009V256.46l68.23-31.295
	c1.588-0.728,3.408-0.728,4.996,0l68.23,31.295v49.111c-13.396,8.771-22.838,23.083-25.054,39.658L285.15,345.229L285.15,345.229z
	 M316.854,345.229c3.54-19.225,20.413-33.84,40.646-33.84s37.107,14.615,40.646,33.84H316.854z"/>
<g>
</g>
<g>
</g>
<g>
</g>
<g>
</g>
<g>
</g>
<g>
</g>
<g>
</g>
<g>
</g>
<g>
</g>
<g>
</g>
<g>
</g>
<g>
</g>
<g>
</g>
<g>
</g>
<g>
</g>
</svg>
