<?xml version="1.0" encoding="iso-8859-1"?>
<!-- Generator: Adobe Illustrator 19.0.0, SVG Export Plug-In . SVG Version: 6.00 Build 0)  -->
<svg version="1.1" id="Capa_1" xmlns="http://www.w3.org/2000/svg" xmlns:xlink="http://www.w3.org/1999/xlink" x="0px" y="0px"
	 viewBox="0 0 511.998 511.998" style="enable-background:new 0 0 511.998 511.998;" xml:space="preserve">
<path style="fill:#AA715F;" d="M301.087,385.498h-90.176l-16.781,92.963c-1.769,9.798,4.61,19.215,14.365,21.208l0,0
	c31.346,6.404,63.662,6.404,95.007,0l0,0c9.755-1.993,16.133-11.41,14.365-21.208L301.087,385.498z"/>
<path style="opacity:0.1;enable-background:new    ;" d="M301.087,385.498h-90.176l-8.905,49.331
	c35.913,3.436,72.072,3.436,107.985,0L301.087,385.498z"/>
<path style="fill:#61C6AD;" d="M230.17,207.728L80.761,334.486c-18.159,15.406-12.059,44.802,10.73,51.712l0,0
	c107.261,32.522,221.756,32.522,329.017,0l0,0c22.789-6.91,28.888-36.306,10.73-51.712L281.829,207.728
	C266.929,195.086,245.07,195.086,230.17,207.728z"/>
<path style="opacity:0.1;enable-background:new    ;" d="M281.829,207.728c-14.9-12.641-36.759-12.641-51.659,0L127.574,294.77
	c84.207,21.949,172.642,21.949,256.85,0L281.829,207.728z"/>
<path style="fill:#61C6AD;" d="M232.801,111.409L98.616,225.251c-16.309,13.836-10.831,40.236,9.637,46.443l0,0
	c96.332,29.208,199.161,29.208,295.493,0l0,0c20.467-6.205,25.944-32.607,9.637-46.443L279.197,111.409
	C265.815,100.055,246.183,100.055,232.801,111.409z"/>
<path style="opacity:0.15;enable-background:new    ;" d="M232.801,111.409L98.616,225.251
	c-16.309,13.836-10.831,40.236,9.637,46.443l0,0c96.332,29.208,199.161,29.208,295.493,0l0,0
	c20.467-6.205,25.944-32.607,9.637-46.443L279.197,111.409C265.815,100.055,246.183,100.055,232.801,111.409z"/>
<path style="opacity:0.1;enable-background:new    ;" d="M279.197,111.409c-13.381-11.352-33.013-11.352-46.396,0l-81.716,69.328
	c68.97,16.481,140.858,16.481,209.826,0L279.197,111.409z"/>
<path style="fill:#61C6AD;" d="M235.433,15.09L116.471,116.016c-14.458,12.266-9.602,35.672,8.543,41.173l0,0
	c85.403,25.894,176.566,25.894,261.968,0l0,0c18.145-5.501,23.001-28.907,8.543-41.173L276.564,15.09
	C264.701,5.024,247.296,5.024,235.433,15.09z"/>
<circle style="opacity:0.1;enable-background:new    ;" cx="324.695" cy="176.576" r="39.305"/>
<path style="opacity:0.1;enable-background:new    ;" d="M152.846,243.11c-18.655,0-34.264,13-38.29,30.432
	c9.669,2.794,19.395,5.308,29.175,7.519l-24.871,21.1c6.81,11.696,19.474,19.564,33.985,19.564
	c21.709,0,39.308-17.599,39.308-39.308C192.154,260.708,174.555,243.11,152.846,243.11z"/>
<circle style="opacity:0.1;enable-background:new    ;" cx="363.999" cy="313.087" r="39.305"/>
<path style="opacity:0.1;enable-background:new    ;" d="M225.766,359.059c-21.709,0-39.308,17.599-39.308,39.308
	c0,2.747,0.284,5.426,0.82,8.014c6.489,0.792,12.987,1.481,19.494,2.048l-3.944,21.85c6.456,4.649,14.374,7.396,22.938,7.396
	c21.709,0,39.308-17.599,39.308-39.308C265.074,376.659,247.475,359.059,225.766,359.059z"/>
<circle style="opacity:0.1;enable-background:new    ;" cx="204.141" cy="121.554" r="39.305"/>
<circle style="fill:#EEEDED;" cx="331.374" cy="169.897" r="39.305"/>
<path style="opacity:0.1;enable-background:new    ;" d="M339.767,200.816c-21.709,0-39.309-17.599-39.309-39.308
	c0-8.713,2.84-16.761,7.637-23.277c-9.721,7.156-16.031,18.674-16.031,31.671c0,21.709,17.599,39.308,39.309,39.308
	c12.996,0,24.515-6.311,31.671-16.031C356.527,197.976,348.48,200.816,339.767,200.816z"/>
<circle style="fill:#EEEDED;" cx="159.527" cy="275.742" r="39.305"/>
<path style="opacity:0.1;enable-background:new    ;" d="M167.918,306.654c-21.709,0-39.309-17.599-39.309-39.308
	c0-8.713,2.84-16.761,7.638-23.278c-9.721,7.156-16.031,18.674-16.031,31.671c0,21.709,17.599,39.309,39.308,39.309
	c12.996,0,24.515-6.311,31.671-16.031C184.678,303.815,176.631,306.654,167.918,306.654z"/>
<circle style="fill:#F8CA4F;" cx="370.679" cy="306.408" r="39.305"/>
<path style="opacity:0.1;enable-background:new    ;" d="M379.074,337.324c-21.709,0-39.308-17.599-39.308-39.309
	c0-8.713,2.84-16.761,7.637-23.277c-9.721,7.156-16.031,18.674-16.031,31.671c0,21.709,17.599,39.308,39.308,39.308
	c12.996,0,24.515-6.31,31.671-16.031C395.835,334.484,387.788,337.324,379.074,337.324z"/>
<circle style="fill:#E86478;" cx="232.447" cy="391.687" r="39.305"/>
<path style="opacity:0.1;enable-background:new    ;" d="M240.838,422.603c-21.709,0-39.308-17.599-39.308-39.308
	c0-8.713,2.84-16.761,7.638-23.277c-9.721,7.156-16.031,18.674-16.031,31.671c0,21.709,17.599,39.308,39.308,39.308
	c12.996,0,24.515-6.311,31.671-16.031C257.598,419.764,249.551,422.603,240.838,422.603z"/>
<circle style="fill:#E86478;" cx="210.82" cy="114.874" r="39.305"/>
<path style="opacity:0.1;enable-background:new    ;" d="M219.216,145.789c-21.709,0-39.309-17.599-39.309-39.308
	c0-8.713,2.84-16.761,7.638-23.277c-9.721,7.156-16.031,18.674-16.031,31.671c0,21.709,17.599,39.308,39.308,39.308
	c12.996,0,24.515-6.311,31.671-16.031C235.976,142.95,227.929,145.789,219.216,145.789z"/>
<path d="M210.822,53.203c-4.141,0-7.499,3.358-7.499,7.499v7.974c-22.256,3.601-39.309,22.942-39.309,46.199
	c0,25.809,20.998,46.807,46.808,46.807s46.807-20.998,46.807-46.807c0-23.257-17.052-42.598-39.308-46.199v-7.974
	C218.321,56.56,214.964,53.203,210.822,53.203z M242.631,114.874c0,17.54-14.269,31.809-31.809,31.809s-31.81-14.269-31.81-31.809
	s14.269-31.809,31.81-31.809S242.631,97.335,242.631,114.874z M436.089,328.768l-19.025-16.141c0.272-2.036,0.425-4.108,0.425-6.217
	c0-10.6-3.547-20.383-9.508-28.238c11.208-4.146,19.257-13.464,21.717-25.314c2.607-12.564-1.679-25.023-11.463-33.324
	l-42.151-35.761c1.363-4.384,2.099-9.044,2.099-13.87c0-0.788-0.021-1.572-0.06-2.351c3.747-1.033,7.446-2.096,11.037-3.185
	c11.19-3.393,19.289-12.253,21.665-23.704c2.376-11.448-1.529-22.8-10.446-30.365l-22.015-18.677
	c-3.157-2.68-7.89-2.291-10.569,0.867c-2.68,3.159-2.292,7.891,0.867,10.57l22.014,18.677c4.663,3.955,6.706,9.893,5.463,15.881
	c-1.242,5.988-5.478,10.623-11.331,12.397c-3.208,0.973-6.506,1.924-9.85,2.852c-5.948-15.163-19.579-26.493-36.085-29.163v-7.974
	c0-4.141-3.357-7.499-7.499-7.499s-7.499,3.358-7.499,7.499v7.974c-21.699,3.511-38.439,21.986-39.264,44.462
	c-39.088,2.536-77.957-0.063-116.079-7.743c-0.327-0.091-0.659-0.152-0.994-0.197c-13.552-2.763-27.009-6.166-40.346-10.211
	c-5.853-1.775-10.089-6.409-11.33-12.397c-1.243-5.988,0.8-11.925,5.463-15.882l118.96-100.926c9.106-7.726,22.325-7.725,31.43,0
	l69.521,58.981c3.157,2.68,7.89,2.291,10.569-0.867c2.68-3.159,2.292-7.891-0.867-10.57L281.417,9.372
	c-14.728-12.496-36.106-12.495-50.835,0L111.621,110.298c-8.916,7.565-12.821,18.916-10.446,30.365
	c2.376,11.449,10.475,20.31,21.664,23.704c9.043,2.742,18.141,5.182,27.281,7.354l-56.356,47.812
	c-9.786,8.302-14.071,20.76-11.463,33.324c2.607,12.564,11.495,22.289,23.776,26.012c2.184,0.662,4.455,1.33,6.932,2.037
	c0.519,4.702,1.736,9.196,3.547,13.376l-40.646,34.485c-10.655,9.039-15.32,22.603-12.481,36.283
	c2.839,13.681,12.516,24.269,25.886,28.323c4.213,1.278,8.517,2.529,12.789,3.716c0.672,0.187,1.347,0.276,2.013,0.276
	c3.284,0,6.298-2.175,7.221-5.492c1.109-3.99-1.227-8.125-5.217-9.234c-4.158-1.156-8.348-2.374-12.453-3.618
	c-8.034-2.436-13.848-8.797-15.554-17.017c-1.706-8.22,1.098-16.37,7.499-21.8l39.122-33.191
	c8.574,9.529,20.993,15.533,34.79,15.533c17.72,0,33.169-9.898,41.115-24.455c18.411,1.985,36.89,2.987,55.368,2.987
	c23.04,0,46.074-1.561,68.947-4.64c-0.701,3.216-1.08,6.549-1.08,9.972c0,25.809,20.997,46.807,46.807,46.807
	c17.981,0,33.614-10.197,41.452-25.105l14.253,12.092c6.4,5.43,9.204,13.58,7.499,21.799c-1.706,8.22-7.521,14.581-15.554,17.018
	c-37.004,11.219-75.041,18.558-113.506,21.927c-0.119,0.006-0.238,0.016-0.357,0.029c-8.822,0.767-17.666,1.32-26.524,1.668
	c0.847-3.517,1.308-7.182,1.308-10.956c0-23.257-17.053-42.598-39.309-46.199v-7.973c0-4.141-3.358-7.499-7.499-7.499
	s-7.499,3.358-7.499,7.499v7.973c-22.256,3.601-39.309,22.942-39.309,46.199c0,2.378,0.181,4.713,0.525,6.996
	c-14.742-1.856-29.48-4.294-43.95-7.297c-4.051-0.84-8.025,1.765-8.866,5.819c-0.841,4.055,1.764,8.024,5.819,8.866
	c17.234,3.576,34.837,6.376,52.389,8.359c1.483,2.655,3.216,5.149,5.168,7.455l-9.972,55.241
	c-2.472,13.694,6.61,27.101,20.244,29.888c16.259,3.322,32.632,4.982,49.004,4.982c16.373,0,32.746-1.661,49.005-4.982
	c13.634-2.786,22.715-16.194,20.243-29.888l-11.19-62c36.795-3.736,73.174-11.004,108.627-21.754
	c13.371-4.054,23.049-14.642,25.887-28.323C451.409,351.37,446.743,337.806,436.089,328.768z M331.374,138.092
	c17.54,0,31.809,14.269,31.809,31.81s-14.269,31.809-31.809,31.809s-31.81-14.269-31.81-31.809S313.834,138.092,331.374,138.092z
	 M370.682,338.219c-17.54,0-31.809-14.269-31.809-31.809s14.27-31.81,31.809-31.81c17.54,0,31.809,14.27,31.809,31.81
	S388.221,338.219,370.682,338.219z M401.57,264.518c-2.078,0.63-4.247,1.268-6.546,1.929c-5.063-3.096-10.76-5.251-16.844-6.235
	v-7.974c0-4.141-3.357-7.499-7.499-7.499c-4.142,0-7.499,3.358-7.499,7.499v7.974c-13.009,2.105-24.242,9.583-31.328,20.084
	c-41.768,6.389-84.156,7.492-126.188,3.254c0.429-2.542,0.664-5.147,0.664-7.809c0-3.001-0.287-6.006-0.853-8.933
	c-0.786-4.066-4.725-6.724-8.787-5.938c-4.066,0.787-6.725,4.72-5.938,8.787c0.385,1.991,0.58,4.037,0.58,6.085
	c0,17.54-14.269,31.809-31.81,31.809s-31.809-14.269-31.809-31.809c0-17.54,14.27-31.81,31.809-31.81
	c6.356,0,12.489,1.867,17.737,5.398c3.435,2.313,8.096,1.403,10.409-2.034c2.313-3.436,1.403-8.096-2.034-10.409
	c-5.639-3.796-11.97-6.28-18.612-7.35v-7.97c0-4.141-3.358-7.499-7.499-7.499s-7.499,3.358-7.499,7.499v7.974
	c-18.902,3.058-34.039,17.473-38.175,35.996c-1.175-0.345-2.313-0.684-3.423-1.02c-6.943-2.105-11.968-7.603-13.442-14.707
	c-1.474-7.104,0.949-14.147,6.481-18.84l65.133-55.259c28.693,5.579,57.785,8.4,87.071,8.399c10.241-0.001,20.51-0.363,30.79-1.049
	c5.7,19.421,23.67,33.647,44.911,33.647c15.48,0,29.222-7.558,37.748-19.173l39.41,33.434c5.531,4.693,7.955,11.736,6.481,18.84
	C413.538,256.914,408.512,262.412,401.57,264.518z M232.444,359.88c17.54,0,31.81,14.27,31.81,31.81
	c0,17.54-14.269,31.81-31.81,31.81c-17.54,0-31.81-14.27-31.81-31.81C200.635,374.15,214.905,359.88,232.444,359.88z
	 M302.002,492.323c-30.524,6.236-61.48,6.236-92.005,0c-5.715-1.168-9.522-6.788-8.486-12.529l8.492-47.042
	c6.667,3.658,14.315,5.744,22.442,5.744c16.123,0,30.367-8.194,38.789-20.635c9.291-0.247,18.567-0.713,27.821-1.408l11.433,63.341
	C311.524,485.535,307.716,491.155,302.002,492.323z"/>
<g>
</g>
<g>
</g>
<g>
</g>
<g>
</g>
<g>
</g>
<g>
</g>
<g>
</g>
<g>
</g>
<g>
</g>
<g>
</g>
<g>
</g>
<g>
</g>
<g>
</g>
<g>
</g>
<g>
</g>
</svg>
