<?xml version="1.0" encoding="iso-8859-1"?>
<!-- Generator: Adobe Illustrator 19.0.0, SVG Export Plug-In . SVG Version: 6.00 Build 0)  -->
<svg version="1.1" id="Capa_1" xmlns="http://www.w3.org/2000/svg" xmlns:xlink="http://www.w3.org/1999/xlink" x="0px" y="0px"
	 viewBox="0 0 512 512" style="enable-background:new 0 0 512 512;" xml:space="preserve">
<path style="fill:#61C6AD;" d="M138.217,115.402l3.595-24.543c1.113-7.598-6.732-13.342-13.639-9.987l0,0
	c-10.042,4.877-21.246,6.853-32.351,5.704l0,0c-7.638-0.79-13.045,7.291-9.4,14.05l11.772,21.833L138.217,115.402z"/>
<path style="opacity:0.1;enable-background:new    ;" d="M138.217,115.402l3.595-24.543c1.113-7.598-6.732-13.342-13.639-9.987l0,0
	c-10.042,4.877-21.246,6.853-32.351,5.704l0,0c-7.638-0.79-13.045,7.291-9.4,14.05l11.772,21.833L138.217,115.402z"/>
<ellipse transform="matrix(-0.1736 -0.9848 0.9848 -0.1736 -34.1849 352.5683)" style="fill:#61C6AD;" cx="130.834" cy="190.627" rx="79.78" ry="86.32"/>
<path style="fill:#AA715F;" d="M149.859,285.409h95.789v-29.65c0-7.508-6.087-13.594-13.594-13.594H149.86v43.245H149.859z"/>
<path style="fill:#E86478;" d="M293.468,252.675L293.468,252.675c-3.575,14.332-16.449,24.389-31.22,24.389h-38.826
	c-15.064,0-28.022-10.661-30.925-25.443l0,0c-9.53-48.535-52.076-83.538-101.537-83.538H63.976
	c-23.992,0-42.676,20.824-40.082,44.677l9.072,83.441c3.631,33.398,31.833,58.701,65.429,58.701h255.135
	c33.167,0,61.761-23.328,68.419-55.821l7.413-36.179c2.833-13.826-7.73-26.772-21.842-26.772h-92.867
	C304.629,236.128,295.893,242.951,293.468,252.675z"/>
<g>
	<path style="fill:#F8CA4F;" d="M407.518,236.128h-92.867c-10.022,0-18.757,6.824-21.182,16.548l0,0
		c-3.575,14.332-16.449,24.388-31.22,24.388h-38.826c-15.064,0-28.022-10.661-30.925-25.443
		c-9.53-48.535-52.076-83.538-101.537-83.538H63.976c-8.216,0-15.808,2.444-22.137,6.613c61.463,1.75,113.812,45.836,125.725,106.5
		l0,0c3.703,18.856,20.232,32.455,39.448,32.455h61.762c18.751,0,35.589-12.532,39.907-30.779
		c2.977-12.58,14.203-21.439,27.1-21.439h93.826C431.436,248.172,421.131,236.128,407.518,236.128z"/>
	<rect x="99.501" y="354.903" style="fill:#F8CA4F;" width="26.847" height="50.341"/>
	<rect x="306.694" y="354.903" style="fill:#F8CA4F;" width="26.847" height="50.341"/>
</g>
<polyline style="opacity:0.1;enable-background:new    ;" points="126.352,354.9 126.352,405.245 99.505,405.245 99.505,354.9 "/>
<polyline style="opacity:0.1;enable-background:new    ;" points="333.537,354.9 333.537,405.245 306.69,405.245 306.69,354.9 "/>
<path style="fill:#F8CA4F;" d="M347.315,432.092H20.923c-7.413,0-13.423-6.01-13.423-13.423c0-7.414,6.01-13.423,13.423-13.423
	h326.392c54.988,0,105.564-29.954,131.993-78.175c3.564-6.501,11.722-8.884,18.223-5.32c6.501,3.563,8.883,11.722,5.32,18.223
	C471.709,396.795,412.111,432.092,347.315,432.092z"/>
<path style="opacity:0.1;enable-background:new    ;" d="M26.024,232.358l6.941,63.842c3.631,33.398,31.833,58.701,65.429,58.701
	h46.049C138.651,236.415,66.728,232.268,26.024,232.358z"/>
<path style="opacity:0.1;enable-background:new    ;" d="M349.616,354.9h3.913c33.167,0,61.761-23.328,68.419-55.821l2.748-13.412
	C396.694,286.497,352.783,297.999,349.616,354.9z"/>
<path style="opacity:0.1;enable-background:new    ;" d="M51.876,296.2l-9.072-83.441c-2.593-23.851,16.09-44.677,40.081-44.677
	h-18.91c-23.992,0-42.676,20.824-40.082,44.677l9.072,83.441c3.631,33.398,31.833,58.701,65.429,58.701h18.91
	C83.709,354.9,55.507,329.598,51.876,296.2z"/>
<path d="M501.137,315.174c-4.903-2.687-10.557-3.304-15.92-1.737c-5.365,1.566-9.799,5.128-12.485,10.029
	c-25.111,45.818-73.169,74.28-125.415,74.28h-6.278v-35.344h12.492c36.563,0,68.427-25.997,75.766-61.816l7.413-36.179
	c0.143-0.699,0.252-1.399,0.345-2.1c0.006-0.052,0.014-0.103,0.018-0.156c1.026-8.077-1.268-16.19-6.466-22.561
	c-5.683-6.965-14.098-10.96-23.087-10.96h-92.867c-13.491,0-25.194,9.142-28.46,22.232c-2.747,11.013-12.593,18.704-23.942,18.704
	h-9.101V255.76c0-11.631-9.463-21.094-21.094-21.094h-21.489c11.778-18.072,16.372-39.361,12.674-60.336
	c-2.891-16.392-10.677-31.455-22.519-43.561c-2.896-2.961-7.645-3.013-10.606-0.117c-2.961,2.896-3.013,7.645-0.117,10.606
	c9.719,9.936,16.106,22.273,18.469,35.675c3.371,19.117-1.725,38.627-14.027,54.54c-16.305-42.019-57.169-70.891-103.479-70.891
	H63.976c-1.263,0-2.518,0.067-3.768,0.166c11.104-21.172,32.668-36.834,58.086-41.316c16.011-2.824,32.162-1.099,46.709,4.987
	c3.82,1.598,8.215-0.203,9.814-4.024s-0.203-8.215-4.024-9.813c-7.486-3.132-15.324-5.286-23.343-6.449l1.785-12.185
	c0.918-6.271-1.688-12.494-6.802-16.239c-5.116-3.745-11.834-4.349-17.535-1.581c-8.793,4.271-18.578,5.994-28.303,4.991
	c-6.304-0.654-12.412,2.215-15.936,7.483c-3.525,5.268-3.846,12.007-0.837,17.586l5.879,10.903
	c-20.686,11.159-36.721,29.324-44.087,51.066c-1.256,0.664-2.489,1.374-3.683,2.149c-0.239,0.147-0.471,0.303-0.692,0.475
	c-3.227,2.176-6.211,4.743-8.854,7.689c-9.057,10.095-13.411,23.618-11.945,37.101l9.072,83.441
	c0.448,4.118,4.152,7.091,8.267,6.646c4.118-0.448,7.093-4.149,6.646-8.267l-9.072-83.441c-1.006-9.254,1.982-18.535,8.198-25.463
	c1.384-1.543,2.909-2.931,4.534-4.169c27.2,1.321,53.52,11.643,74.357,29.264c21.505,18.185,36.337,43.423,41.765,71.062
	c4.382,22.314,24.067,38.51,46.808,38.51h61.762c22.701,0,42.112-15.031,47.207-36.552c2.183-9.224,10.324-15.666,19.801-15.666
	h19.89c4.143,0,7.5-3.358,7.5-7.5c0-4.142-3.357-7.5-7.5-7.5h-19.89c-16.462,0-30.607,11.19-34.398,27.212
	c-3.429,14.49-17.143,25.006-32.608,25.006h-61.762c-15.589,0-29.085-11.103-32.088-26.401
	c-6.082-30.97-22.701-59.249-46.798-79.625c-12.607-10.661-27.008-18.942-42.386-24.542h5.221c42.75,0,80.128,28.452,92.043,68.811
	c0,0,0,0.001,0.001,0.002c0.837,2.835,1.556,5.724,2.134,8.67c3.583,18.251,19.684,31.498,38.284,31.498h38.826
	c18.249,0,34.08-12.367,38.497-30.073c1.596-6.396,7.314-10.863,13.905-10.863h92.867c4.464,0,8.643,1.984,11.464,5.442
	c1.194,1.463,2.06,3.117,2.618,4.863h-32.928c-4.143,0-7.5,3.358-7.5,7.5c0,4.142,3.357,7.5,7.5,7.5h31.796l-5.868,28.641
	c-5.915,28.871-31.599,49.827-61.07,49.827h-19.982c-0.003,0-0.007,0-0.01,0s-0.006,0-0.01,0h-26.827c-0.003,0-0.006,0-0.01,0
	s-0.006,0-0.01,0H126.362c-0.003,0-0.006,0-0.01,0c-0.003,0-0.006,0-0.01,0H99.515c-0.003,0-0.006,0-0.01,0c-0.003,0-0.006,0-0.01,0
	h-1.102c-18.877,0-36.671-9.203-47.602-24.619c-2.395-3.38-7.078-4.176-10.456-1.78c-3.379,2.395-4.176,7.077-1.78,10.456
	c12.497,17.626,32.138,28.787,53.45,30.66v35.628H20.923C9.386,397.745,0,407.132,0,418.669s9.386,20.923,20.923,20.923h326.392
	c67.535,0,129.653-36.79,162.113-96.015C514.973,333.46,511.253,320.718,501.137,315.174z M93.124,94.941
	c0.315-0.471,0.905-1.013,1.926-0.904c12.503,1.29,25.091-0.926,36.399-6.419c0.922-0.449,1.662-0.144,2.12,0.191
	c0.457,0.335,0.971,0.947,0.822,1.962l-1.956,13.355c-5.565,0.048-11.164,0.548-16.746,1.532c-5.59,0.986-11.024,2.435-16.252,4.302
	l-6.413-11.894C92.535,96.163,92.809,95.412,93.124,94.941z M238.147,269.564h-14.726c-11.449,0-21.359-8.154-23.565-19.388
	c-0.034-0.172-0.078-0.34-0.112-0.511h32.309c3.36,0,6.094,2.734,6.094,6.094L238.147,269.564L238.147,269.564z M314.19,362.4
	h11.847v35.344H314.19L314.19,362.4L314.19,362.4z M133.853,362.4H299.19v35.344H133.853V362.4z M107.005,362.4h11.847v35.344
	h-11.847V362.4z M496.275,336.368c-29.825,54.419-86.903,88.224-148.959,88.224H20.923c-3.266,0-5.923-2.657-5.923-5.923
	c0-3.266,2.657-5.923,5.923-5.923h326.392c57.728,0,110.823-31.447,138.57-82.07c0.761-1.388,2.016-2.396,3.534-2.84
	c1.518-0.444,3.118-0.269,4.507,0.492C496.791,329.897,497.844,333.504,496.275,336.368z"/>
<g>
</g>
<g>
</g>
<g>
</g>
<g>
</g>
<g>
</g>
<g>
</g>
<g>
</g>
<g>
</g>
<g>
</g>
<g>
</g>
<g>
</g>
<g>
</g>
<g>
</g>
<g>
</g>
<g>
</g>
</svg>
