<svg height="512pt" viewBox="0 -11 512.00061 512" width="512pt" xmlns="http://www.w3.org/2000/svg"><path d="m161.492188 177.203125c14.789062-11.53125 24.300781-29.511719 24.300781-49.707031 0-34.785156-28.191407-119.875-62.988281-119.875-34.78125 0-62.984376 85.089844-62.984376 119.875 0 20.207031 9.519532 38.1875 24.308594 49.71875" fill="#ff437d"/><path d="m93.304688 127.496094c0 20.207031 4.460937 38.1875 11.386718 49.71875h-20.5625c-14.789062-11.53125-24.308594-29.511719-24.308594-49.71875 0-34.785156 28.203126-119.875 62.984376-119.875-16.292969 0-29.5 85.089844-29.5 119.875zm0 0" fill="#db2164"/><path d="m84.136719 177.152344h77.351562v54.617187h-77.351562zm0 0" fill="#ffc440"/><path d="m84.136719 177.152344h25.503906v39.742187h-25.503906zm0 0" fill="#e5a117"/><path d="m420.546875 177.203125c14.789063-11.53125 24.296875-29.511719 24.296875-49.707031 0-34.785156-28.191406-119.875-62.984375-119.875-34.785156 0-62.984375 85.089844-62.984375 119.875 0 20.207031 9.519531 38.1875 24.308594 49.71875" fill="#67c67b"/><path d="m352.359375 127.496094c0 20.207031 4.457031 38.1875 11.386719 49.71875h-20.5625c-14.789063-11.53125-24.308594-29.511719-24.308594-49.71875 0-34.785156 28.199219-119.875 62.984375-119.875-16.292969 0-29.5 85.089844-29.5 119.875zm0 0" fill="#45a354"/><path d="m343.1875 177.152344h77.355469v56.648437h-77.355469zm0 0" fill="#ffc440"/><path d="m343.1875 177.152344h25.507812v39.742187h-25.507812zm0 0" fill="#e5a117"/><path d="m213.65625 313.210938c-14.789062 11.527343-24.308594 29.511718-24.308594 49.714843 0 34.785157 28.199219 119.878907 62.984375 119.878907 34.796875 0 62.988281-85.09375 62.988281-119.878907 0-20.195312-9.511718-38.175781-24.300781-49.707031" fill="#769edd"/><path d="m222.832031 362.925781c0-20.207031 4.460938-38.1875 11.386719-49.71875h-20.5625c-14.789062 11.53125-24.308594 29.511719-24.308594 49.71875 0 34.785157 28.199219 119.875 62.984375 119.875-16.292969 0-29.5-85.089843-29.5-119.875zm0 0" fill="#5780bc"/><path d="m213.660156 258.183594h77.355469v55.085937h-77.355469zm0 0" fill="#ffc440"/><path d="m213.660156 273.527344h25.507813v39.742187h-25.507813zm0 0" fill="#e5a117"/><path d="m480.261719 231.054688-24.117188-14.152344h-41.46875l-24.117187 14.152344-24.117188-14.152344h-41.46875l-24.117187 14.152344-24.117188-14.152344h-41.46875l-24.117187 14.152344-24.117188-14.152344h-41.46875l-24.117187 14.152344-24.117188-14.152344h-41.46875l-24.121093 14.152344-24.117188-14.152344v56.625l24.117188-14.148438 24.121093 14.148438h41.46875l24.117188-14.148438 24.117187 14.148438h41.46875l24.117188-14.148438 24.117187 14.148438h41.46875l24.117188-14.148438 24.117187 14.148438h41.46875l24.117188-14.148438 24.117187 14.148438h41.46875l24.117188-14.148438 24.117187 14.148438v-56.625zm0 0" fill="#d7f4f1"/><g fill="#a1cec8"><path d="m504.378906 216.902344v28.3125l-24.117187 14.164062-24.117188 14.148438h-41.46875l-24.117187-14.148438 24.117187-14.164062h41.46875l24.117188-14.160156zm0 0"/><path d="m390.558594 231.054688-24.117188 14.160156h-41.46875l-24.117187 14.164062-24.117188 14.148438h-41.46875l-24.117187-14.148438 24.117187-14.164062h41.46875l24.117188-14.160156 24.117187-14.152344h41.46875zm0 0"/><path d="m211.152344 231.054688-24.117188 14.160156h-41.46875l-24.117187 14.164062-24.117188 14.148438h-41.46875l-24.121093-14.148438 24.121093-14.164062h41.46875l24.117188-14.160156 24.117187-14.152344h41.46875zm0 0"/><path d="m31.742188 231.054688-24.117188 14.160156v-28.3125zm0 0"/></g><path d="m421.769531 265.910156h-5.023437l-11.140625-6.539062 11.140625-6.539063h39.394531c1.355469 0 2.6875-.363281 3.855469-1.050781l48.242187-28.316406c3.628907-2.128906 4.84375-6.796875 2.710938-10.429688-2.128907-3.625-6.796875-4.839844-10.425781-2.710937l-20.261719 11.894531-20.265625-11.894531c-1.167969-.6875-2.5-1.050781-3.855469-1.050781h-27.980469v-28.476563c15.492188-13.4375 24.304688-32.65625 24.304688-53.300781 0-19.511719-7.855469-50.796875-19.101563-76.078125-18.90625-42.496094-38.441406-51.417969-51.503906-51.417969-13.058594 0-32.589844 8.921875-51.496094 51.414062-11.25 25.289063-19.105469 56.574219-19.105469 76.082032 0 20.648437 8.8125 39.867187 24.3125 53.3125v28.464844h-10.597656c-1.355468 0-2.6875.363281-3.855468 1.050781l-20.265626 11.894531-20.261718-11.894531c-1.167969-.6875-2.5-1.050781-3.855469-1.050781h-41.464844c-1.355469 0-2.6875.363281-3.859375 1.050781l-20.261718 11.894531-20.261719-11.894531c-1.167969-.6875-2.5-1.050781-3.859375-1.050781h-17.921875v-28.476563c15.492187-13.4375 24.304687-32.65625 24.304687-53.300781 0-19.511719-7.851562-50.796875-19.101562-76.078125-18.902344-42.496094-38.441406-51.417969-51.5-51.417969-22.320313 0-39.050782 25.195312-49.152344 46.328125-1.816406 3.796875-.210938 8.347656 3.585938 10.160156 3.796874 1.816407 8.347656.210938 10.160156-3.585937 11.445312-23.9375 24.347656-37.664063 35.40625-37.664063 11.726562 0 25.777344 15.839844 37.578125 42.371094 11.675781 26.25 17.785156 55.027344 17.785156 69.886719 0 16.316406-7.027344 31.484375-19.351563 42.039062h-28.394531v-27.707031l22.191407-22.195313c2.976562-2.972656 2.976562-7.796874 0-10.773437-2.972657-2.976563-7.796876-2.976563-10.773438 0l-19.035156 19.039063-19.039063-19.039063c-2.972656-2.976563-7.796875-2.976563-10.773437 0-2.976563 2.976563-2.976563 7.800781 0 10.773437l22.191406 22.195313v27.707031h-28.394531c-12.328125-10.558594-19.351563-25.726562-19.351563-42.039062 0-12.460938 3.96875-31.914063 10.351563-50.773438 1.351562-3.984375-.785157-8.308594-4.769531-9.660156-3.988282-1.347656-8.3125.785156-9.660157 4.773438-6.988281 20.632812-11.160156 41.4375-11.160156 55.660156 0 20.648437 8.816406 39.867187 24.3125 53.3125v28.464844h-20.65625c-1.355469 0-2.6875.363281-3.855469 1.050781l-20.261718 11.894531-20.265626-11.894531c-3.628906-2.132813-8.296874-.914063-10.425781 2.714843-2.132812 3.628907-.914062 8.296876 2.714844 10.425782l12.925781 7.589844-12.925781 7.585937c-3.628906 2.132813-4.84375 6.800781-2.714844 10.429687 1.417969 2.417969 3.964844 3.761719 6.578125 3.761719 1.308594 0 2.636719-.335937 3.851563-1.046875l46.453125-27.269531h37.320312l11.140625 6.539063-11.140625 6.539062h-39.394531c-1.355469 0-2.6875.359375-3.855469 1.046875l-48.242187 28.316406c-3.628907 2.132813-4.84375 6.800781-2.710938 10.429688 1.417969 2.417969 3.960938 3.761719 6.578125 3.761719 1.308594 0 2.636719-.339844 3.847656-1.050782l20.265626-11.890625 20.261718 11.890625c1.167969.6875 2.5 1.050782 3.855469 1.050782h41.464844c1.355469 0 2.6875-.363282 3.855469-1.050782l20.265624-11.890625 20.261719 11.890625c1.167969.6875 2.5 1.050782 3.855469 1.050782h41.464844c1.355468 0 2.6875-.363282 3.859375-1.050782l15.15625-8.894531v38.414063c-15.5 13.441406-24.316407 32.664062-24.316407 53.3125 0 19.507812 7.859376 50.792968 19.109376 76.078124 18.902343 42.496094 38.4375 51.414063 51.496093 51.414063 13.0625 0 32.597657-8.917969 51.5-51.414063 11.25-25.285156 19.105469-56.570312 19.105469-76.078124 0-20.648438-8.8125-39.863282-24.304688-53.304688v-40.117188l2.21875-1.300781 20.261719 11.894531c1.167969.6875 2.5 1.046876 3.855469 1.046876h41.464844c1.355468 0 2.6875-.359376 3.855468-1.046876l20.265626-11.894531 20.261718 11.894531c1.167969.6875 2.5 1.046876 3.855469 1.046876h7.097656c4.207031 0 7.617188-3.410157 7.617188-7.617188 0-4.210938-3.40625-7.621094-7.617188-7.621094zm-95.273437-138.414062c0-14.855469 6.109375-43.632813 17.789062-69.886719 11.804688-26.53125 25.851563-42.371094 37.574219-42.371094 11.730469 0 25.777344 15.839844 37.582031 42.371094 11.675782 26.25 17.785156 55.027344 17.785156 69.886719 0 16.316406-7.027343 31.484375-19.355468 42.039062h-28.390625v-27.707031l22.191406-22.195313c2.976563-2.972656 2.976563-7.796874 0-10.773437s-7.800781-2.976563-10.773437 0l-19.035157 19.039063-19.039062-19.039063c-2.976563-2.976563-7.800781-2.976563-10.773438 0-2.976562 2.976563-2.976562 7.800781 0 10.773437l22.191407 22.195313v27.707031h-28.394532c-12.328125-10.558594-19.351562-25.726562-19.351562-42.039062zm86.425781 57.277344v24.71875c-.734375.175781-1.445313.445312-2.101563.832031l-20.261718 11.894531-20.265625-11.894531c-1.167969-.683594-2.5-1.046875-3.855469-1.046875h-15.628906v-24.503906zm-311.742187 25.550781c-1.167969-.6875-2.5-1.046875-3.855469-1.046875h-5.570313v-24.503906h62.113282v24.503906h-8.300782c-1.359375 0-2.6875.359375-3.859375 1.046875l-20.261719 11.894531zm16.359374 42.503906c-.019531.011719-.035156.019531-.054687.03125l-22.230469 13.050781h-37.320312l-11.140625-6.542968 11.140625-6.539063h39.390625c1.355469 0 2.6875-.359375 3.859375-1.046875l46.453125-27.269531h37.320312l11.140625 6.539062-11.140625 6.539063h-39.390625c-1.359375 0-2.6875.363281-3.859375 1.050781zm67.417969 13.082031h-37.320312l-11.140625-6.539062 11.140625-6.539063h39.390625c1.359375 0 2.691406-.363281 3.859375-1.050781l46.453125-27.265625h37.324218l11.136719 6.539063-11.136719 6.539062h-39.394531c-1.355469 0-2.6875.359375-3.855469 1.046875l-24.167968 14.1875c-.019532.011719-.039063.019531-.054688.03125zm122.742188 97.015625c0 14.859375-6.109375 43.636719-17.785157 69.886719-11.804687 26.53125-25.851562 42.371094-37.582031 42.371094-11.722656 0-25.769531-15.839844-37.574219-42.371094-11.679687-26.253906-17.789062-55.027344-17.789062-69.886719 0-16.308593 7.027344-31.480469 19.351562-42.035156h28.394532v27.703125l-22.191406 22.195312c-2.976563 2.972657-2.976563 7.796876 0 10.773438 1.484374 1.488281 3.4375 2.230469 5.386718 2.230469 1.949219 0 3.898438-.742188 5.386719-2.230469l19.035156-19.035156 19.039063 19.035156c2.972656 2.976562 7.796875 2.976562 10.773437 0 2.976563-2.976562 2.976563-7.800781 0-10.773438l-22.191406-22.195312v-27.703125h28.390625c12.328125 10.550781 19.355469 25.722656 19.355469 42.035156zm-24.304688-57.277343h-62.113281v-31.496094l10.128906 5.945312c1.171875.6875 2.503906 1.050782 3.859375 1.050782h41.464844c1.355469 0 2.6875-.363282 3.855469-1.050782l2.804687-1.644531zm13.550781-52.820313c-.015624.011719-.035156.019531-.050781.03125l-22.234375 13.050781h-37.320312l-11.140625-6.539062 11.140625-6.539063h39.390625c1.359375 0 2.6875-.363281 3.859375-1.050781l46.453125-27.265625h37.320312l11.140625 6.539063-11.140625 6.539062h-39.390625c-1.355468 0-2.6875.359375-3.859375 1.046875zm67.417969 13.082031h-37.320312l-11.140625-6.539062 11.140625-6.539063h39.394531c1.355469 0 2.6875-.363281 3.855469-1.050781l46.457031-27.265625h37.320312l11.140626 6.539063-11.140626 6.539062h-39.394531c-1.355469 0-2.6875.359375-3.855469 1.046875zm0 0"/><path d="m510.949219 241.355469c-2.128907-3.628907-6.796875-4.84375-10.425781-2.714844l-24.167969 14.1875c-.019531.007813-.039063.019531-.054688.03125l-22.230469 13.050781h-1.820312c-4.207031 0-7.621094 3.410156-7.621094 7.617188 0 4.210937 3.414063 7.621094 7.621094 7.621094h3.890625c1.355469 0 2.6875-.363282 3.855469-1.050782l20.261718-11.890625 20.265626 11.890625c1.210937.710938 2.539062 1.050782 3.847656 1.050782 2.613281 0 5.160156-1.34375 6.578125-3.761719 2.132812-3.628907.914062-8.296875-2.710938-10.429688l-12.929687-7.585937 12.929687-7.589844c3.628907-2.128906 4.84375-6.796875 2.710938-10.425781zm0 0"/></svg>