<?xml version="1.0" encoding="iso-8859-1"?>
<!-- Generator: Adobe Illustrator 19.0.0, SVG Export Plug-In . SVG Version: 6.00 Build 0)  -->
<svg version="1.1" id="Capa_1" xmlns="http://www.w3.org/2000/svg" xmlns:xlink="http://www.w3.org/1999/xlink" x="0px" y="0px"
	 viewBox="0 0 512 512" style="enable-background:new 0 0 512 512;" xml:space="preserve">
<path style="fill:#A86D38;" d="M253.051,166.929c-3.642-7.284-14.038-7.284-17.68,0l-34.864,69.728
	c-4.243,8.486-16.356,8.486-20.598,0c-3.643-7.284-14.039-7.284-17.68,0L98.126,362.863l54.177,108.354h48.078l102.907-205.815
	L253.051,166.929z"/>
<g>
	<path style="fill:#995F30;" d="M201.265,236.657c4.243,8.486,16.355,8.486,20.598,0l33.044-66.088l-1.857-3.639
		c-3.642-7.284-14.038-7.284-17.68,0l-34.517,69.034C200.993,236.193,201.142,236.41,201.265,236.657z"/>
	<path style="fill:#995F30;" d="M120.712,360.439l61.352-120.789c-0.835-0.844-1.574-1.831-2.155-2.993
		c-3.643-7.284-14.039-7.284-17.68,0L98.126,362.863l54.177,108.354h21.356l-52.962-105.925
		C119.933,363.764,119.938,361.964,120.712,360.439z"/>
</g>
<path style="fill:#B78046;" d="M290.977,458.521c0.124-8.809,5.821-13.052,13.02-12.22c1.765,0.204,3.355-0.954,3.689-2.699
	c3.773-19.743,30.239-24.178,40.228-6.639c2.637,4.631,6.182-1.025,15.071,1.848c1.169,0.378,2.427,0.2,3.434-0.504
	c4.382-3.064,9.685-4.072,14.628-3.089c1.627,0.323,3.229-0.718,3.449-2.362c2.019-15.11,14.933-26.771,30.596-26.771
	c11.561,0,21.614,6.359,26.908,15.763c1.211,2.152,3.707,3.233,6.058,2.478c10.817-3.474,22.41,0.803,28.582,10.24L358.067,195.421
	c-4.282-8.566-16.506-8.566-20.788,0L199.381,471.217h103.096C294.956,471.216,290.871,466.067,290.977,458.521z"/>
<path style="fill:#995F30;" d="M358.067,195.421c-4.282-8.566-16.506-8.566-20.788,0L199.381,471.217h21.334L358.339,195.97
	L358.067,195.421z"/>
<path style="fill:#B78046;" d="M153.303,471.216H19.066L81.48,346.389l0,0c1.938-3.877,7.47-3.877,9.41,0L153.303,471.216z"/>
<path style="fill:#A86D38;" d="M90.889,346.39c-1.938-3.877-7.47-3.877-9.41,0L19.066,471.217h20.501l56.868-113.736L90.889,346.39z
	"/>
<path style="fill:#CC9562;" d="M299.551,296.827c3.919,3.624,10.085,3.183,13.447-0.963l8.589-10.594
	c3.279-4.044,9.252-4.58,13.199-1.184l16.022,13.786c3.692,3.177,9.219,2.94,12.626-0.541l30.174-30.831l-35.54-71.08
	c-4.283-8.566-16.506-8.566-20.788,0l-46.6,93.199L299.551,296.827z"/>
<path style="fill:#B78046;" d="M358.067,195.421c-0.319-0.638-0.694-1.213-1.094-1.755c-4.977-6.746-15.73-6.172-19.694,1.755
	l-39.63,79.261l-6.969,13.939l8.873,8.206c2.019,1.868,4.634,2.647,7.156,2.405l51.631-103.263L358.067,195.421z"/>
<path style="fill:#CC9562;" d="M50.029,409.292l1.8,1.665c3.008,2.782,7.74,2.443,10.321-0.739l6.592-8.13
	c2.517-3.104,7.1-3.515,10.13-0.909l12.297,10.581c2.834,2.438,7.074,2.256,9.69-0.415l14.898-15.222L90.889,346.39
	c-1.938-3.877-7.47-3.877-9.41,0L50.029,409.292z"/>
<path style="fill:#B78046;" d="M81.48,346.39l-15.664,31.329l-15.787,31.574l1.8,1.665c3.008,2.782,7.74,2.443,10.321-0.739
	l6.592-8.13c1.663-2.052,4.229-2.918,6.652-2.524l21.041-42.082l-5.546-11.093c-0.606-1.211-1.563-2.044-2.651-2.499
	c-0.653-0.273-1.353-0.409-2.053-0.409C84.317,343.481,82.449,344.451,81.48,346.39z"/>
<circle style="fill:#FED159;" cx="138.148" cy="113.377" r="37.372"/>
<path style="fill:#FCB75B;" d="M120.777,113.381c0-17.176,11.591-31.635,27.373-36.009c-3.184-0.882-6.535-1.364-10.001-1.364
	c-20.641,0-37.373,16.733-37.373,37.373s16.733,37.373,37.373,37.373c3.465,0,6.816-0.481,10.001-1.364
	C132.368,145.016,120.777,130.556,120.777,113.381z"/>
<path style="fill:#99CC56;" d="M488.601,438.38c-1.673-0.02-3.287,0.214-4.808,0.663c-1.998,0.59-4.161-0.431-4.958-2.355
	c-4.876-11.772-18.069-18.443-30.776-14.362c-2.351,0.755-4.847-0.326-6.058-2.478c-5.293-9.404-15.347-15.763-26.908-15.763
	c-15.663,0-28.578,11.661-30.596,26.771c-0.22,1.644-1.822,2.686-3.449,2.362c-4.943-0.983-10.244,0.024-14.628,3.089
	c-1.007,0.704-2.265,0.882-3.434,0.504c-8.915-2.881-12.426,2.796-15.071-1.848c-9.989-17.539-36.454-13.104-40.228,6.639
	c-0.334,1.745-1.924,2.903-3.689,2.699c-7.986-0.923-14.911,5.479-15.02,13.22c-0.106,7.545,5.978,13.695,13.5,13.695
	c17.984,0,163.37,0,185.923,0c9.292,0,16.781-7.718,16.405-17.094C504.46,445.506,497.223,438.484,488.601,438.38z"/>
<path style="fill:#8DBC42;" d="M308.978,457.521c0.109-7.741,7.035-14.144,15.02-13.22c1.764,0.204,3.355-0.954,3.689-2.699
	c1.267-6.629,5.547-12.174,11.353-15.191c-12.858-6.705-28.626,0.918-31.354,15.191c-0.333,1.745-1.924,2.903-3.689,2.699
	c-7.985-0.924-14.911,5.479-15.02,13.22c-0.106,7.545,5.978,13.695,13.5,13.695c3.167,0,10.298,0,20.001,0
	C314.957,471.216,308.872,465.067,308.978,457.521z"/>
<path d="M137.829,62.485c4.143,0,7.5-3.358,7.5-7.5V40.717c0-4.142-3.357-7.5-7.5-7.5s-7.5,3.358-7.5,7.5v14.267
	C130.329,59.127,133.687,62.485,137.829,62.485z"/>
<path d="M130.329,171.911v14.267c0,4.142,3.357,7.5,7.5,7.5s7.5-3.358,7.5-7.5v-14.267c0-4.142-3.357-7.5-7.5-7.5
	S130.329,167.769,130.329,171.911z"/>
<path d="M91.186,77.411c2.926,2.928,7.675,2.93,10.607,0c2.929-2.929,2.929-7.678-0.001-10.607L91.703,56.716
	c-2.928-2.93-7.677-2.929-10.607,0c-2.929,2.929-2.929,7.678,0.001,10.607L91.186,77.411z"/>
<path d="M184.474,149.484c-2.93-2.929-7.678-2.929-10.608,0c-2.929,2.929-2.929,7.678,0,10.607l10.089,10.089
	c2.93,2.929,7.678,2.929,10.608,0s2.929-7.678,0-10.607L184.474,149.484z"/>
<path d="M65.099,120.948h14.268c4.143,0,7.5-3.358,7.5-7.5s-3.357-7.5-7.5-7.5H65.099c-4.143,0-7.5,3.358-7.5,7.5
	S60.956,120.948,65.099,120.948z"/>
<path d="M188.792,113.448c0,4.142,3.357,7.5,7.5,7.5h14.268c4.143,0,7.5-3.358,7.5-7.5s-3.357-7.5-7.5-7.5h-14.268
	C192.15,105.948,188.792,109.306,188.792,113.448z"/>
<path d="M91.185,149.484l-10.089,10.089c-4.741,4.741-1.316,12.804,5.304,12.804c1.919,0,3.839-0.732,5.304-2.197l10.089-10.089
	c2.929-2.929,2.929-7.678,0-10.607C98.863,146.555,94.115,146.555,91.185,149.484z"/>
<path d="M184.473,77.411l10.089-10.088c2.93-2.929,2.93-7.677,0.001-10.607c-2.929-2.929-7.678-2.93-10.607,0l-10.09,10.088
	c-2.93,2.929-2.93,7.677-0.001,10.607C176.794,80.34,181.545,80.341,184.473,77.411z"/>
<path d="M511.98,453.889c-0.553-13.77-13.389-24.985-27.765-22.628c-5.776-11.045,19.465,39.324-84.221-168.046l0,0l-35.54-71.08
	c-7.053-14.107-27.176-14.06-34.205,0c-3.186,6.373-23.974,47.949-28.283,56.564l-42.528-85.056l0,0
	c-6.4-12.806-24.695-12.806-31.097,0l-34.863,69.727c-1.475,2.949-5.697,2.971-7.182,0c-6.403-12.805-24.696-12.804-31.098,0
	L98.806,346.159l-1.528-3.057c-4.727-9.453-18.147-9.356-22.825,0l-31.452,62.903c0,0.001-0.001,0.002-0.001,0.004l-28.889,57.774
	H7.5c-4.143,0-7.5,3.358-7.5,7.5s3.357,7.5,7.5,7.5c8.099,0,369.663,0,377.738,0c4.143,0,7.5-3.358,7.5-7.5s-3.357-7.5-7.5-7.5
	h-83.082c-3.351,0-6.045-2.736-6-6.088c0.047-3.287,3.097-6.287,6.659-5.875c5.714,0.663,10.841-3.095,11.917-8.742
	c1.28-6.696,7.161-11.549,13.976-11.549c5.014,0,9.795,2.694,12.369,7.213c2.468,4.334,7.493,6.545,12.232,5.505
	c1.09-0.239,3.6-1.345,7.051-0.232c8.77,2.829,10.445-5.056,18.902-3.375c5.891,1.175,11.559-2.819,12.348-8.724
	c1.544-11.552,11.501-20.263,23.161-20.263c8.419,0,16.226,4.576,20.371,11.941c2.406,4.275,6.992,6.727,11.666,6.519
	c1.078-0.048,2.162-0.237,3.224-0.578c8.9-2.855,18.148,1.875,21.551,10.09c2.276,5.495,8.301,8.367,14.014,6.679
	c5.628-1.663,11.172,2.635,11.395,8.185c0.205,5.113-3.862,9.294-8.912,9.294h-67.839c-4.143,0-7.5,3.358-7.5,7.5s3.357,7.5,7.5,7.5
	h67.839C501.656,478.783,512.525,467.528,511.98,453.889z M343.666,198.842c1.523-3.043,5.855-3.031,7.371,0
	c2.893,5.786,24.754,49.508,33.149,66.299l-26.435,27.01c-0.641,0.653-1.682,0.697-2.374,0.102l-16.021-13.786
	c-7.153-6.157-17.969-5.191-23.918,2.145l-8.589,10.595c-0.628,0.776-1.782,0.868-2.527,0.18l-4.737-4.382
	C329.317,227.541,328.55,229.075,343.666,198.842z M85.864,353.819l20.472,40.944l-10.889,11.126l-12.005-10.33
	c-5.353-4.606-12.871-4.541-18.063-0.774L85.864,353.819z M30.883,463.783l21.909-43.819c10.749,2.692,15.566-5.822,21.189-12.757
	l11.976,10.305c5.82,5.009,14.58,4.623,19.942-0.854l7.535-7.699l27.413,54.824L30.883,463.783L30.883,463.783z M194.425,463.783
	h-36.807l-50.427-100.854l61.426-122.85c0.883-1.765,3.381-1.766,4.264,0.001c7.01,14.02,27.012,14.005,34.016,0l34.863-69.729
	c0.883-1.765,3.38-1.765,4.263,0l0,0l47.56,95.119C289.333,273.966,202.624,447.386,194.425,463.783z M454.524,413.712
	c-2.441,0.063-4.855,0.398-7.212,1.002c-7.014-11.22-19.342-18.062-32.54-18.062c-17.6,0-32.837,12.088-37.15,28.777
	c-4.936-0.111-9.909,1.151-14.337,3.832c-3.476-0.86-7.141-0.962-10.666-0.295c-5.44-7.733-14.369-12.438-23.91-12.438
	c-12.809,0-24,8.346-27.832,20.292c-10.777,0.654-19.562,9.577-19.719,20.661v0.001c-0.029,2.058,0.302,4.373,0.862,6.299h-70.822
	L292.6,300.976l1.538,1.423c0,0,0,0,0.001,0c7.09,6.558,18.279,5.76,24.365-1.746l8.589-10.594c0.621-0.765,1.737-0.862,2.481-0.223
	l16.022,13.787c6.672,5.74,16.722,5.309,22.878-0.98l22.811-23.308l67.26,134.519C457.227,413.725,455.862,413.677,454.524,413.712z
	"/>
<path d="M137.829,158.322c16.641,0,31.833-9.141,39.648-23.854c1.942-3.658,0.552-8.199-3.106-10.143s-8.198-0.552-10.143,3.105
	c-5.205,9.802-15.321,15.89-26.399,15.89c-16.472,0-29.873-13.401-29.873-29.873s13.401-29.873,29.873-29.873
	c11.078,0,21.193,6.088,26.399,15.89c1.942,3.657,6.483,5.049,10.143,3.105c3.658-1.943,5.049-6.483,3.106-10.143
	c-7.814-14.714-23.007-23.854-39.648-23.854c-24.743,0-44.874,20.13-44.874,44.874S113.086,158.322,137.829,158.322z"/>
<g>
</g>
<g>
</g>
<g>
</g>
<g>
</g>
<g>
</g>
<g>
</g>
<g>
</g>
<g>
</g>
<g>
</g>
<g>
</g>
<g>
</g>
<g>
</g>
<g>
</g>
<g>
</g>
<g>
</g>
</svg>
